<svg xmlns="http://www.w3.org/2000/svg" xmlns:xlink="http://www.w3.org/1999/xlink" viewBox="0 0 377.28 269.19"><defs><style>.cls-1,.cls-4{fill:none}.cls-2{isolation:isolate}.cls-10,.cls-3{fill:#283069}.cls-3,.cls-4{stroke:#fbddec;stroke-width:4px;stroke-miterlimit:10}.cls-4{stroke:#c2599d;stroke-width:2px}.cls-5{fill:#fff}.cls-6{fill:#fbddec}.cls-7{fill:#e7579a}.cls-8{fill:#e7e8e9;mix-blend-mode:multiply}.cls-9{fill:#ed837e}.cls-11{clip-path:url(#clip-path)}</style><clipPath id="clip-path" transform="translate(77.47)"><path d="M225.06,193.4v-118a15.11,15.11,0,0,0-7.31-12.95L120.83,4a15.11,15.11,0,0,0-15.62,0L8.3,62.4A15.11,15.11,0,0,0,1,75.35V193.4A15.12,15.12,0,0,0,8.3,206.35l96.91,58.44a15.11,15.11,0,0,0,15.62,0l96.92-58.44A15.12,15.12,0,0,0,225.06,193.4Z" class="cls-1"/></clipPath></defs><title>Asset 35</title><g class="cls-2"><g id="Layer_2" data-name="Layer 2"><g id="Layer_1-2" data-name="Layer 1"><path d="M226.07,193.62v-118a15.12,15.12,0,0,0-7.31-12.95L121.85,4.17a15.15,15.15,0,0,0-15.62,0L9.31,62.62A15.12,15.12,0,0,0,2,75.57V193.62a15.11,15.11,0,0,0,7.31,12.95L106.23,265a15.11,15.11,0,0,0,15.62,0l96.91-58.45A15.11,15.11,0,0,0,226.07,193.62Z" class="cls-3" transform="translate(77.47)"/><rect width="172.58" height="44.25" x="105.22" y="115.23" class="cls-4"/><path d="M62.68,99.59v22.93a2.2,2.2,0,0,1-2.19,2.19,2.18,2.18,0,0,1-2.2-2.19V106.28L52.67,114a2.18,2.18,0,0,1-1.76.9,2.3,2.3,0,0,1-1.76-.9l-5.62-7.71v16.24a2.18,2.18,0,1,1-4.35,0V99.3s0-.07,0-.11v-.11a.11.11,0,0,0,0-.1s0-.07,0-.11,0,0,0-.07,0-.08,0-.11a.15.15,0,0,0,0-.11l.07-.07s0-.07,0-.11l.07-.07s0-.07.07-.11,0,0,0-.07l.11-.07a.08.08,0,0,1,.07-.08.08.08,0,0,1,.07-.07l.07-.07s0,0,.08,0,0,0,0,0,0,0,.07-.07.08,0,.11,0,.07,0,.07-.07a.12.12,0,0,0,.11,0s.07,0,.11,0,.07,0,.11,0,0,0,.07,0a.29.29,0,0,0,.14,0H41a.25.25,0,0,0,.14,0h.43a.09.09,0,0,1,.07,0h.11a.15.15,0,0,1,.11,0H42a.12.12,0,0,0,.11,0,.11.11,0,0,0,.1,0s0,0,.08,0l.1.08s.08,0,.08,0,.07,0,.1.07a.14.14,0,0,1,.08,0l.1.07.08.07s.07,0,.1.07,0,0,0,.08.07,0,.07.07.07.07.07.11,0,0,.08,0L50.91,109l7.81-10.69s0,0,0,0,0-.07.07-.11,0,0,.07-.07,0,0,.07-.08,0-.07.08-.07l.07-.07s.07,0,.11-.07,0,0,.07,0,.07-.07.11-.07,0,0,.07,0l.11-.08a.13.13,0,0,0,.1,0s0,0,.08,0a.11.11,0,0,0,.1,0H60a.15.15,0,0,1,.11,0h.11a.12.12,0,0,1,.11,0h.43a.12.12,0,0,0,.11,0H61a.17.17,0,0,0,.11,0,.11.11,0,0,0,.07,0c.08,0,.11,0,.15,0a.11.11,0,0,0,.07,0,.13.13,0,0,0,.11,0l.11.07a.1.1,0,0,0,.07,0l.11.07,0,0,0,0a.08.08,0,0,1,.07.07S62,98,62,98l.07.08s0,0,.07.07,0,0,0,.07.07.07.07.11l.07.07s0,.07.07.11,0,0,0,.07,0,.07,0,.11a.14.14,0,0,1,0,.11s0,0,0,.07a.15.15,0,0,1,0,.11s0,.07,0,.1a.12.12,0,0,0,0,.11v.33S62.68,99.55,62.68,99.59Z" class="cls-5" transform="translate(77.47)"/><path d="M80.18,116.87H69.09a4.75,4.75,0,0,0,4.57,3.63,6,6,0,0,0,3.78-1.37,2.17,2.17,0,0,1,3.06,0,2.13,2.13,0,0,1,0,3.06,10,10,0,0,1-6.81,2.56,9,9,0,0,1,0-18.07,7.77,7.77,0,0,1,1.59.14A8.74,8.74,0,0,1,81.08,111a7,7,0,0,1,1.15,3.53,2.92,2.92,0,0,1-.29,1A2,2,0,0,1,80.18,116.87ZM69.7,113.23h7.63a4,4,0,0,0-3.67-2.16A4.69,4.69,0,0,0,69.7,113.23Z" class="cls-5" transform="translate(77.47)"/><path d="M101.2,115.64v6.81a2.14,2.14,0,1,1-4.28,0v-6.81A4.4,4.4,0,0,0,92.78,111c-2.81,0-4.25,2.81-4.25,5.3v6.12a2.16,2.16,0,1,1-4.32,0V108.7a2.16,2.16,0,0,1,2.16-2.16,2.13,2.13,0,0,1,2,1.47,8,8,0,0,1,4.39-1.29A8.69,8.69,0,0,1,101.2,115.64Z" class="cls-5" transform="translate(77.47)"/><path d="M113.51,122.41a2.14,2.14,0,0,1-2.16,2.16,7.23,7.23,0,0,1-.93,0,5.18,5.18,0,0,1-3.17-1.62,5.27,5.27,0,0,1-1.22-3.24V110.6h-1.55a2.16,2.16,0,0,1,0-4.32H106V99.41a2.16,2.16,0,0,1,4.32,0v6.87h1.18a2.16,2.16,0,0,1,0,4.32h-1.18v8.57c.07.29,0,.72.25.94s.5.14.75.14A2.16,2.16,0,0,1,113.51,122.41Z" class="cls-5" transform="translate(77.47)"/><path d="M124.71,124.61a9,9,0,1,1,9.07-9A9,9,0,0,1,124.71,124.61Zm0-13.65a4.61,4.61,0,1,0,4.61,4.61A4.6,4.6,0,0,0,124.71,111Z" class="cls-5" transform="translate(77.47)"/><path d="M151.13,112.15a2.16,2.16,0,0,1-3.06.11,4.32,4.32,0,0,0-3-1.19,4.58,4.58,0,0,0-4.46,4.64v6.81a2.16,2.16,0,0,1-4.32,0V108.73a2.16,2.16,0,0,1,4.21-.65,8.8,8.8,0,0,1,4.57-1.33,8.67,8.67,0,0,1,5.94,2.38A2.11,2.11,0,0,1,151.13,112.15Z" class="cls-5" transform="translate(77.47)"/><path d="M167.76,116.87H156.68a4.74,4.74,0,0,0,4.57,3.63,6,6,0,0,0,3.78-1.37,2.17,2.17,0,0,1,3.06,0,2.13,2.13,0,0,1,0,3.06,10,10,0,0,1-6.8,2.56,9,9,0,0,1,0-18.07,7.67,7.67,0,0,1,1.58.14,8.7,8.7,0,0,1,5.83,4.14,7,7,0,0,1,1.16,3.53,3.15,3.15,0,0,1-.29,1A2,2,0,0,1,167.76,116.87Zm-10.47-3.64h7.63a4,4,0,0,0-3.67-2.16A4.66,4.66,0,0,0,157.29,113.23Z" class="cls-5" transform="translate(77.47)"/><path d="M189.25,99.55v22.9a2.19,2.19,0,0,1-4.28.64,9,9,0,0,1-5.15,1.59,9.11,9.11,0,0,1,0-18.22A9.42,9.42,0,0,1,184.9,108V99.55a2.18,2.18,0,1,1,4.35,0Zm-4.67,16a4.76,4.76,0,1,0-4.76,4.75A4.75,4.75,0,0,0,184.58,115.57Z" class="cls-5" transform="translate(77.47)"/><path d="M76.92,160.61c-.25,4.21-4.07,6.66-7.49,7.16a14.72,14.72,0,0,1-1.76.11,12.15,12.15,0,0,1-9.18-4,2.16,2.16,0,0,1,.25-3,2.11,2.11,0,0,1,3,.26,8.07,8.07,0,0,0,7.09,2.44c1.76-.25,3.71-1.33,3.82-3.17a3.56,3.56,0,0,0-2.92-3.52,11.9,11.9,0,0,0-2.38-.25,10.89,10.89,0,0,1-5.9-1.55,7.48,7.48,0,0,1-3.13-8,8.67,8.67,0,0,1,7.16-6,12.76,12.76,0,0,1,9.4,2.44,2.16,2.16,0,0,1-2.67,3.39,8.17,8.17,0,0,0-6.15-1.59,4.36,4.36,0,0,0-3.6,2.95,3.15,3.15,0,0,0,1.44,3.28,7,7,0,0,0,3.67.79,19,19,0,0,1,3.1.36A7.89,7.89,0,0,1,76.92,160.61Z" class="cls-5" transform="translate(77.47)"/><path d="M98.7,158.91A9.12,9.12,0,0,1,89.59,168a9.38,9.38,0,0,1-5.07-1.51v8.42a2.18,2.18,0,1,1-4.36,0V152a2.17,2.17,0,0,1,2.2-2.16,2.23,2.23,0,0,1,2.09,1.51,8.91,8.91,0,0,1,5.14-1.58A9.12,9.12,0,0,1,98.7,158.91Zm-4.36,0a4.75,4.75,0,1,0-4.75,4.76A4.77,4.77,0,0,0,94.34,158.91Z" class="cls-5" transform="translate(77.47)"/><path d="M115.87,155.35a2.16,2.16,0,0,1-3.06.11,4.32,4.32,0,0,0-3-1.19,4.58,4.58,0,0,0-4.46,4.64v6.81a2.16,2.16,0,1,1-4.32,0V151.93a2.16,2.16,0,0,1,4.21-.65,8.78,8.78,0,0,1,4.57-1.33,8.67,8.67,0,0,1,5.94,2.38A2.11,2.11,0,0,1,115.87,155.35Z" class="cls-5" transform="translate(77.47)"/><path d="M120.52,146.75a2.25,2.25,0,0,1-2.27-2.2v-.18a2.23,2.23,0,1,1,4.46,0v.18A2.23,2.23,0,0,1,120.52,146.75Zm0,21.13a2.25,2.25,0,0,1-2.27-2.23v-13.9a2.23,2.23,0,0,1,4.46,0v13.9A2.24,2.24,0,0,1,120.52,167.88Z" class="cls-5" transform="translate(77.47)"/><path d="M142.94,158.84v6.81a2.14,2.14,0,1,1-4.28,0v-6.81a4.39,4.39,0,0,0-4.14-4.6c-2.81,0-4.25,2.8-4.25,5.29v6.12a2.16,2.16,0,1,1-4.32,0V151.9a2.17,2.17,0,0,1,2.16-2.16,2.13,2.13,0,0,1,2,1.47,8,8,0,0,1,4.39-1.29A8.69,8.69,0,0,1,142.94,158.84Z" class="cls-5" transform="translate(77.47)"/><path d="M155.26,165.61a2.15,2.15,0,0,1-2.16,2.16,7.31,7.31,0,0,1-.94,0,5.18,5.18,0,0,1-3.17-1.62,5.27,5.27,0,0,1-1.22-3.24V153.8h-1.55a2.16,2.16,0,1,1,0-4.32h1.55v-6.87a2.16,2.16,0,1,1,4.32,0v6.87h1.19a2.16,2.16,0,1,1,0,4.32h-1.19v8.57c.07.29,0,.72.25.94s.5.14.76.14A2.17,2.17,0,0,1,155.26,165.61Z" class="cls-5" transform="translate(77.47)"/><path d="M164.22,168a9.11,9.11,0,0,1-5.8-2,2.16,2.16,0,0,1,2.92-3.17c.65.61,3.06,1.44,4.43.54a1.1,1.1,0,0,0-.22-2,3.91,3.91,0,0,0-1.55-.17,8.21,8.21,0,0,1-2.84-.4,5.42,5.42,0,0,1-3.53-4.43,5.31,5.31,0,0,1,1.62-4.46,7.67,7.67,0,0,1,6.34-1.59,6.49,6.49,0,0,1,3.42,1.59,2.15,2.15,0,0,1-2.63,3.38,3.27,3.27,0,0,0-1.51-.72c-1.08-.18-3.1-.11-3,1.44a1.43,1.43,0,0,0,.64.76,6.35,6.35,0,0,0,1.48.1,8.42,8.42,0,0,1,3.31.58,5.5,5.5,0,0,1,3.28,4.93,5.57,5.57,0,0,1-2.49,4.61A7,7,0,0,1,164.22,168Z" class="cls-5" transform="translate(77.47)"/><path d="M81.6,80.77A18.45,18.45,0,0,1,78.78,68a9,9,0,0,1,.9-2.87,4.52,4.52,0,0,1,1.72-1.84,3.26,3.26,0,0,1,1-.41,1.82,1.82,0,0,1,.45,0,1.43,1.43,0,0,1,.41,0,2.19,2.19,0,0,1,.81.31,3.47,3.47,0,0,1,.84.7,8.49,8.49,0,0,1,1.45,2.38c.36.87.7,2.07,1.16,3.29a14.82,14.82,0,0,0,2,3.91,9.2,9.2,0,0,0,4.63,3.2,11.45,11.45,0,0,0,6,.06,12.76,12.76,0,0,0,7-4.47,13,13,0,0,0,1.41-2.14,15.31,15.31,0,0,0,1.54-4.45,18.06,18.06,0,0,0,.26-4.39,15.38,15.38,0,0,0-.93-4.44,12.33,12.33,0,0,0-2.67-4.21,13.48,13.48,0,0,0-2-1.66,19.19,19.19,0,0,0-2.11-1.23c-1.4-.7-2.75-1.21-4-1.69-.61-.23-1.19-.45-1.73-.68s-1-.44-1.5-.68a14.76,14.76,0,0,1-4.76-3.55,8.44,8.44,0,0,1-1.39-2.2,6.73,6.73,0,0,1-.54-2.31,6.82,6.82,0,0,1,.27-2.31,5.5,5.5,0,0,1,1-1.85,6,6,0,0,1,1.69-1.33,9.11,9.11,0,0,1,2.43-.86,15.57,15.57,0,0,1,3-.3,19,19,0,0,1,3.18.23,20.69,20.69,0,0,1,3.18.72A18,18,0,0,1,106.41,34a11,11,0,0,1,2.24,1.52,8.1,8.1,0,0,1,1.58,2,14.54,14.54,0,0,1,1.68,5.56c.28,2.12.32,4.5.48,7a27.89,27.89,0,0,0,1.52,8A17.32,17.32,0,0,0,116,62a15,15,0,0,0,1.52,1.8,14,14,0,0,0,1.9,1.58,12.74,12.74,0,0,0,2.27,1.26,12.15,12.15,0,0,0,1.27.47l.65.2c.22.06.44.1.66.14a15.67,15.67,0,0,0,5.33.16,16.8,16.8,0,0,0,5-1.53,14.68,14.68,0,0,0,4.21-3.06,12.84,12.84,0,0,0,2.67-4.19,12.15,12.15,0,0,0,0-8.93,9.5,9.5,0,0,0-.46-1l-.27-.51c-.09-.16-.2-.32-.31-.48l-.31-.48-.36-.46c-.24-.31-.5-.59-.75-.87a21.78,21.78,0,0,0-3.27-2.67c-1.08-.75-2.11-1.42-3-2.11-.44-.34-.85-.7-1.22-1a10.2,10.2,0,0,1-1-1.16,8.24,8.24,0,0,1-1.32-2.63,6.26,6.26,0,0,1-.22-1.42,5.21,5.21,0,0,1,.15-1.41A5.84,5.84,0,0,1,130.62,31a5.49,5.49,0,0,1,2.71-1.54,9,9,0,0,1,3.51,0c2.44.41,4.89,1.55,7.72,1.88a10.36,10.36,0,0,0,2.16,0,9.11,9.11,0,0,0,2.13-.47,6.58,6.58,0,0,0,1.9-1,4.7,4.7,0,0,0,1.32-1.6.25.25,0,0,0-.15-.34.33.33,0,0,0-.37.13h0a4.8,4.8,0,0,1-3,2,7.46,7.46,0,0,1-1.87.26,8.89,8.89,0,0,1-1.85-.21c-2.47-.51-4.66-1.82-7.4-2.58a11.32,11.32,0,0,0-4.48-.4,9,9,0,0,0-2.37.66,8.88,8.88,0,0,0-2.07,1.28,9.57,9.57,0,0,0-2.75,3.69,7.76,7.76,0,0,0-.57,2.2,9.52,9.52,0,0,0,0,2.2,10.47,10.47,0,0,0,1.4,4,12.61,12.61,0,0,0,1.23,1.76,16.52,16.52,0,0,0,1.46,1.54c1,.94,2.05,1.75,3,2.52a17.32,17.32,0,0,1,2.37,2.27,5.06,5.06,0,0,1,.41.57l.19.29.16.3a2.8,2.8,0,0,1,.15.3l.13.31a6.05,6.05,0,0,1,.24.64,7.5,7.5,0,0,1,.32,2.71,7.29,7.29,0,0,1-2.19,4.81,8.58,8.58,0,0,1-5,2.2,7.86,7.86,0,0,1-2.68-.21,1.47,1.47,0,0,1-.3-.08l-.29-.1a4.56,4.56,0,0,1-.55-.24,4.85,4.85,0,0,1-.54-.3,5.88,5.88,0,0,1-.51-.36,9.07,9.07,0,0,1-2.91-4.5,22,22,0,0,1-.75-6.25c0-2.3.1-4.78-.1-7.47a21.39,21.39,0,0,0-2.19-8.3,15.31,15.31,0,0,0-2.92-3.85A19.07,19.07,0,0,0,111.35,27,24.17,24.17,0,0,0,107,25.14a30.4,30.4,0,0,0-4.55-1.07,26.34,26.34,0,0,0-9.91.19,19,19,0,0,0-5.17,1.92,15,15,0,0,0-4.43,3.65,13.92,13.92,0,0,0-2.49,4.81A14.12,14.12,0,0,0,80,39.57a14,14,0,0,0,1.25,4.67,16.28,16.28,0,0,0,2.61,3.91,20,20,0,0,0,3.47,3.05,25.88,25.88,0,0,0,4,2.27c.69.32,1.4.61,2.07.86s1.32.48,2,.69c1.23.43,2.34.82,3.27,1.24A6,6,0,0,1,102,59.52a9.1,9.1,0,0,1,.65,2.6,12,12,0,0,1,0,2.87,9.05,9.05,0,0,1-.72,2.61,6.36,6.36,0,0,1-.63,1.08,6.18,6.18,0,0,1-.76.88,5.32,5.32,0,0,1-2,1.12,4,4,0,0,1-2,.13l-.2,0-.19-.07a2.56,2.56,0,0,1-.4-.21,3.61,3.61,0,0,1-.79-.67,9.62,9.62,0,0,1-1.47-2.46c-.47-1-.85-2.12-1.51-3.45a13.3,13.3,0,0,0-2.67-3.66,9.08,9.08,0,0,0-2.19-1.54,8.34,8.34,0,0,0-6.1-.45,9.51,9.51,0,0,0-5.87,5.31,12.48,12.48,0,0,0-1,4.25,21.41,21.41,0,0,0,1,7.79A20.93,20.93,0,0,0,79,82.4a1.64,1.64,0,0,0,2.17.21,1.34,1.34,0,0,0,.44-1.84Z" class="cls-6" transform="translate(77.47)"/><path d="M133.05,27.22a11.34,11.34,0,0,1,4.41.4l.64.2a11,11,0,0,1-1.61.47C135.16,28.56,132.93,28.26,133.05,27.22ZM118.23,54.67a2.93,2.93,0,0,1-.63-2.59,2.66,2.66,0,0,1,2.89-2.86v.25a23.25,23.25,0,0,0,.65,5.87,8,8,0,0,1-.85,0A3.41,3.41,0,0,1,118.23,54.67Zm10.09-14.38a5.62,5.62,0,0,0-.1,1.63,4,4,0,0,0,.95,1.44,1.77,1.77,0,0,1,.5,1.55l-.36-.32a16.52,16.52,0,0,1-1.46-1.54,12.61,12.61,0,0,1-1.23-1.76,10.47,10.47,0,0,1-1.4-4l0-.39a4.18,4.18,0,0,1,2,.89A3.11,3.11,0,0,1,128.32,40.29Zm2.3-9.26a5.84,5.84,0,0,0-1.45,2.62c0,.07,0,.14,0,.21a2,2,0,0,1-1.21-1.45,2.27,2.27,0,0,1,1.25-2.08,5.27,5.27,0,0,1,2.63-.59c.24,0,.47,0,.71,0A5.81,5.81,0,0,0,130.62,31ZM132,63.86c.83-.15,1.73.13,2.48-.24,1.41-.68.88-2.8,2.11-3.72.76-.57,1.89-.45,2.73-.91a2.63,2.63,0,0,0,1.24-2.16c.06-.83-.12-1.65-.14-2.48a3.1,3.1,0,0,1,1.62-2.73,12.08,12.08,0,0,1-.54,7.24,12.84,12.84,0,0,1-2.67,4.19,14.68,14.68,0,0,1-4.21,3.06,16.68,16.68,0,0,1-4.3,1.41,2.6,2.6,0,0,1-.33-1A2.55,2.55,0,0,1,132,63.86Zm1.25-22.2c.78.57,1.64,1.14,2.54,1.77a21.78,21.78,0,0,1,3.27,2.67c.1.11.19.22.29.32a2.61,2.61,0,0,1-1.3.88,2.06,2.06,0,0,1-2.35-.74c-.33-.58-.24-1.36-.77-1.8s-1.59-.29-2.18-.76a1.19,1.19,0,0,1-.3-1.36A2.35,2.35,0,0,1,133.26,41.66Zm3,12.15a3.26,3.26,0,0,1,.76.91,1.86,1.86,0,0,1,.08,1.89,2.87,2.87,0,0,1-1.56,1l-.24.07a7.48,7.48,0,0,0,.95-3.22C136.27,54.27,136.28,54,136.27,53.81ZM85.1,30.91c-.52,1.06.15,2.43-.7,3.31a2.22,2.22,0,0,1-2.48.25,4.21,4.21,0,0,1-1.14-.87,13.72,13.72,0,0,1,2.14-3.77,15,15,0,0,1,4.43-3.65l0,0a.08.08,0,0,1,0,0,2.82,2.82,0,0,1-.59,3C86.26,29.77,85.45,30.2,85.1,30.91Zm7.72-1.37a3.17,3.17,0,0,1,2.3.92,1.71,1.71,0,0,1,.19,1.63c-.37,0-.72.1-1.06.17a9.11,9.11,0,0,0-2.43.86,6.07,6.07,0,0,0-1.21.85,4.79,4.79,0,0,1-1-1.17A2.13,2.13,0,0,1,90,30.19,3.86,3.86,0,0,1,92.82,29.54Zm-4,9.07a6.73,6.73,0,0,0,.54,2.31,8.44,8.44,0,0,0,1.39,2.2,12.39,12.39,0,0,0,2.32,2.09l-.2.24a3.55,3.55,0,0,1-3.38.94,1.77,1.77,0,0,1-1.13-.76c-.39-.69,0-1.59-.2-2.35-.34-1.16-2-1.61-2.4-2.76a2.08,2.08,0,0,1,1.08-2.2,4.44,4.44,0,0,1,2-.6A6.59,6.59,0,0,0,88.85,38.61Zm-7.36,1a3.5,3.5,0,0,1,3,3.26A4.31,4.31,0,0,1,83,45.78c-.17.15-.36.33-.57.5a13.61,13.61,0,0,1-1.16-2A13.9,13.9,0,0,1,80,39.58,4.77,4.77,0,0,1,81.49,39.65Zm40,21.7a2.32,2.32,0,0,1-.45-3.18,3.81,3.81,0,0,1,.85-.9,8,8,0,0,0,2.29,2.95,5.88,5.88,0,0,0,.51.36,4.85,4.85,0,0,0,.54.3,4.56,4.56,0,0,0,.55.24l.29.1a1.47,1.47,0,0,0,.3.08,7.86,7.86,0,0,0,2.68.21l.33,0v0a3.29,3.29,0,0,1-.85,1.4,2.16,2.16,0,0,1-1.58.62c-1,0-1.59-.81-2.42-1.2S122.31,61.93,121.46,61.35ZM103.58,32.91a20.69,20.69,0,0,0-3.18-.72c-.56-.09-1.12-.15-1.68-.19a2.18,2.18,0,0,1-.08-.57A2.67,2.67,0,0,1,100.08,29a3.59,3.59,0,0,1,2.54-.13,9,9,0,0,1,2.22,1.1,5.81,5.81,0,0,1,2.34,2.09,5.42,5.42,0,0,1,.25,2.56c-.33-.21-.66-.41-1-.6A18,18,0,0,0,103.58,32.91ZM97,47.35c.54.23,1.12.45,1.73.68,1.19.47,2.5,1,3.87,1.65q-.06.33-.15.66a2.48,2.48,0,0,1-.84,1.45,3.38,3.38,0,0,1-2,.44,4.7,4.7,0,0,1-2.58-.46,2.38,2.38,0,0,1-1-1.89A3.59,3.59,0,0,1,97,47.34Zm2.32-21.88c-1.44,0-2.89.35-4.31.2a3.26,3.26,0,0,1-2.5-1.42,26.38,26.38,0,0,1,9.88-.18c.89.14,1.75.32,2.6.53a5,5,0,0,1-2.31,1A25.28,25.28,0,0,1,99.36,25.47Zm11.77,5.41a3,3,0,0,1-.78-1.64,9.85,9.85,0,0,1-.19-2.43c0-.13,0-.27,0-.41.39.19.77.38,1.15.59a19.07,19.07,0,0,1,3.93,2.86c.16.15.31.3.46.46a6.7,6.7,0,0,1-1,.69A3.24,3.24,0,0,1,111.13,30.88Zm4,18.38a2.13,2.13,0,0,1-.46,2.69,6.37,6.37,0,0,1-2,1.31c-.15-1.07-.25-2.13-.32-3.15,0-.61-.07-1.21-.1-1.8.19,0,.38,0,.56,0A3.17,3.17,0,0,1,115.15,49.26ZM79.68,65.12a6.18,6.18,0,0,0-.43,1,.46.46,0,0,1-.07-.07,2.32,2.32,0,0,1-.29-2.62A3.8,3.8,0,0,1,82,61.86a3,3,0,0,1,2.55.85,2.28,2.28,0,0,1,.4,1.16,3.47,3.47,0,0,0-.84-.7,2.19,2.19,0,0,0-.81-.31,1.43,1.43,0,0,0-.41,0,1.82,1.82,0,0,0-.45,0,3.26,3.26,0,0,0-1,.41A4.52,4.52,0,0,0,79.68,65.12ZM78.37,79.61a1.31,1.31,0,0,1-.63,1.12,20.42,20.42,0,0,1-1.52-2.65C77.11,78.35,78.3,78.81,78.37,79.61Zm11-19.32A13.3,13.3,0,0,1,92,63.9c.58,1.18,1,2.19,1.35,3.11a1.91,1.91,0,0,1-1.71.23A2.12,2.12,0,0,1,90.55,66a6.13,6.13,0,0,0-.69-1.49c-.49-.64-1.37-1-1.71-1.73A2,2,0,0,1,89.36,60.29Zm-1.67-11.5a3.16,3.16,0,0,1,2.64,1.81,4.42,4.42,0,0,0,.41,1.29,2.3,2.3,0,0,0,1.72.72,6.91,6.91,0,0,1,2,.28,2,2,0,0,1,1.14,2.23l-.27-.1c-.63-.21-1.27-.44-2-.69s-1.38-.54-2.07-.86a25.88,25.88,0,0,1-4-2.27,20.62,20.62,0,0,1-2.75-2.29A8.75,8.75,0,0,1,87.69,48.79Zm-9,23.59a17.94,17.94,0,0,0,1,4.44,2.47,2.47,0,0,1-1.5-.1,2.51,2.51,0,0,1-1.49-1.79,2,2,0,0,1,.16-1.42A2.63,2.63,0,0,1,78.67,72.38Zm-4.19-6.75A2.72,2.72,0,0,1,75,70.5a2.24,2.24,0,0,1-.81.29,22.75,22.75,0,0,1,0-3A14.3,14.3,0,0,1,74.48,65.63Zm3.92-6.08A9.44,9.44,0,0,1,81,58.25a8.31,8.31,0,0,1,2-.37,1.49,1.49,0,0,1-.6,1,4.15,4.15,0,0,1-1.76.57,3,3,0,0,0-1.62,1.13,2.32,2.32,0,0,1-2.33.46A9.06,9.06,0,0,1,78.4,59.55Zm40.51,2.21c.89.77.86,2.2,1.86,2.85.81.52,2,.34,2.9.65a3.17,3.17,0,0,1,1.85,1.79c.1.23.19.45.26.66a13,13,0,0,1-1.5-.23c-.22,0-.44-.08-.66-.14l-.65-.2a12.15,12.15,0,0,1-1.27-.47,12.74,12.74,0,0,1-2.27-1.26,14,14,0,0,1-1.9-1.58A15,15,0,0,1,116,62l-.19-.27A2.78,2.78,0,0,1,118.91,61.76Zm-8.68-24.24c-.15-.26-.32-.5-.49-.74a2.9,2.9,0,0,1,.36-.25,1.81,1.81,0,0,1,2.9,1.89,5.43,5.43,0,0,0,0,2c.29.94,1.3,1.63,1.37,2.62a2.25,2.25,0,0,1-2.26,2.2c-.05-.76-.12-1.5-.21-2.21A14.54,14.54,0,0,0,110.23,37.52Zm8.33-1.43a2.49,2.49,0,0,1,.67,0A23.54,23.54,0,0,1,120.39,42c.08,1,.11,2,.11,2.94a2,2,0,0,1-1.5.1,2,2,0,0,1-1.07-2,6.94,6.94,0,0,0-.06-2.41c-.33-1-1.34-1.66-1.34-2.67A2.16,2.16,0,0,1,118.56,36.09ZM108.31,59.61a4.57,4.57,0,0,1-1.91-2.35,1.51,1.51,0,0,1,.3-1.72,2.09,2.09,0,0,1,1.26-.33l.8,0a13.37,13.37,0,0,1,.74,1.59,15,15,0,0,1,.76,2.92A1.7,1.7,0,0,1,108.31,59.61Zm.46,10.22-.14.27a13,13,0,0,1-1.41,2.14,13.14,13.14,0,0,1-1.93,2l-.34.26a1.71,1.71,0,0,1-.26-.21,2.22,2.22,0,0,1-.23-2.8A4.92,4.92,0,0,1,108.77,69.83ZM96.09,73.64a5,5,0,0,1,3.7,2.09,5.92,5.92,0,0,1,.5,1l-.12,0a11.45,11.45,0,0,1-6-.06,9,9,0,0,1-2.47-1.18l.21-.27A5.18,5.18,0,0,1,96.09,73.64Zm-6.74-3.88a2.49,2.49,0,0,1,.1,3.53,15.17,15.17,0,0,1-1.92-3.75c-.06-.16-.12-.32-.17-.48A3.16,3.16,0,0,1,89.35,69.76ZM102.64,65a12,12,0,0,0,0-2.87,8.07,8.07,0,0,0-.19-1.13,4.63,4.63,0,0,1,2.52.6,2.65,2.65,0,0,1,1.12,3.31c-.33.68-1,1.22-1.25,1.9s-.2,1.52-.79,2a2,2,0,0,1-2.5-.27l-.13-.13a8.36,8.36,0,0,0,.46-.83A9.05,9.05,0,0,0,102.64,65Z" class="cls-7" transform="translate(77.47)"/><path d="M136.12,29.4a10.72,10.72,0,0,1,2.24.17c2.44.41,4.89,1.56,7.72,1.89h0a11,11,0,0,1-1.53-.08c-2.83-.33-5.28-1.47-7.72-1.88C136.6,29.46,136.36,29.42,136.12,29.4Zm-2.05,29.91a7.29,7.29,0,0,0,2.19-4.81,7.5,7.5,0,0,0-.32-2.71,6.05,6.05,0,0,0-.24-.64l-.13-.31a2.8,2.8,0,0,0-.15-.3l-.16-.3-.19-.29a5.06,5.06,0,0,0-.41-.57,17.32,17.32,0,0,0-2.37-2.27c-.93-.77-2-1.58-3-2.52a16.52,16.52,0,0,1-1.46-1.54,12.61,12.61,0,0,1-1.23-1.76,10.47,10.47,0,0,1-1.4-4,9.52,9.52,0,0,1,0-2.2,7.76,7.76,0,0,1,.57-2.2,9.57,9.57,0,0,1,2.75-3.69,8.88,8.88,0,0,1,2.07-1.28,9,9,0,0,1,2.37-.66,10.37,10.37,0,0,1,2.49,0,8.09,8.09,0,0,0-1,.08,8.38,8.38,0,0,0-2.37.66,8.72,8.72,0,0,0-2.07,1.27,9.53,9.53,0,0,0-2.75,3.7,7.7,7.7,0,0,0-.57,2.19,9.52,9.52,0,0,0,0,2.2,10.41,10.41,0,0,0,1.4,4,12.61,12.61,0,0,0,1.23,1.76,15.36,15.36,0,0,0,1.46,1.54c1,.94,2,1.75,3,2.52a17.94,17.94,0,0,1,2.37,2.27,5.15,5.15,0,0,1,.41.58l.19.28.16.3a2.8,2.8,0,0,1,.15.3l.13.31a4.93,4.93,0,0,1,.24.64,7.5,7.5,0,0,1,.32,2.71,7.27,7.27,0,0,1-2.19,4.81,8.55,8.55,0,0,1-5.05,2.2,8.16,8.16,0,0,1-1.92,0l.4,0A8.58,8.58,0,0,0,134.07,59.31Zm17.47-31.18h0a.33.33,0,0,1,.37-.13.25.25,0,0,1,.15.34,4.7,4.7,0,0,1-1.32,1.6l-.24.17-.41.13a7.94,7.94,0,0,1-1.87.25,7.43,7.43,0,0,1-1.15-.09,7.69,7.69,0,0,0,1.5-.24A4.8,4.8,0,0,0,151.54,28.13ZM84.38,62.89a1.53,1.53,0,0,1,.42,0,2.41,2.41,0,0,1,.8.31,3.31,3.31,0,0,1,.84.71,8.29,8.29,0,0,1,1.45,2.37c.36.87.7,2.07,1.16,3.29a15.12,15.12,0,0,0,2,3.91,9.2,9.2,0,0,0,4.63,3.2,10.75,10.75,0,0,0,1.76.35,10.53,10.53,0,0,1-3.28-.42,9.2,9.2,0,0,1-4.63-3.2,14.82,14.82,0,0,1-2-3.91c-.46-1.22-.8-2.42-1.16-3.29a8.49,8.49,0,0,0-1.45-2.38,3.47,3.47,0,0,0-.84-.7,2.34,2.34,0,0,0-.35-.18l.2-.05A1.82,1.82,0,0,1,84.38,62.89Zm-9.23.67A9.51,9.51,0,0,1,81,58.25a8.16,8.16,0,0,1,3.15-.35l.48.05a8.19,8.19,0,0,0-2.11.37,9.51,9.51,0,0,0-5.87,5.31,12.46,12.46,0,0,0-1,4.25,21,21,0,0,0,1,7.79,20.72,20.72,0,0,0,3.79,6.8,1.32,1.32,0,0,0,.37.3A1.63,1.63,0,0,1,79,82.4a20.93,20.93,0,0,1-3.8-6.8,21.41,21.41,0,0,1-1-7.79A12.48,12.48,0,0,1,75.15,63.56Zm22.71,7.28h0a5.89,5.89,0,0,0,.67-.16,5.32,5.32,0,0,0,2-1.12,6.18,6.18,0,0,0,.76-.88,6.36,6.36,0,0,0,.63-1.08,9.05,9.05,0,0,0,.72-2.61,12,12,0,0,0,0-2.87,9.1,9.1,0,0,0-.65-2.6,6,6,0,0,0-3.48-3.26c-.93-.42-2-.81-3.27-1.24-.63-.21-1.27-.44-2-.69s-1.38-.54-2.07-.86a25.88,25.88,0,0,1-4-2.27,20,20,0,0,1-3.47-3.05,16.28,16.28,0,0,1-2.61-3.91A14,14,0,0,1,80,39.57a14.12,14.12,0,0,1,.45-4.93,13.92,13.92,0,0,1,2.49-4.81,15,15,0,0,1,4.43-3.65,19,19,0,0,1,5.17-1.92,25.63,25.63,0,0,1,7.44-.49,25.29,25.29,0,0,0-5.92.56,19,19,0,0,0-5.17,1.92,15,15,0,0,0-4.43,3.65A13.73,13.73,0,0,0,82,34.71a13.87,13.87,0,0,0,.79,9.6,16.09,16.09,0,0,0,2.61,3.91,20,20,0,0,0,3.47,3.05,25.88,25.88,0,0,0,4,2.27c.69.32,1.4.61,2.07.86s1.33.48,2,.69c1.23.43,2.34.82,3.27,1.24a6,6,0,0,1,3.48,3.26,8.78,8.78,0,0,1,.65,2.6,12,12,0,0,1,0,2.87,9.06,9.06,0,0,1-.73,2.61,5.46,5.46,0,0,1-.63,1.08,6.18,6.18,0,0,1-.76.88,5.32,5.32,0,0,1-2,1.12,4.11,4.11,0,0,1-2,.14Zm5.72-37.93a20.69,20.69,0,0,0-3.18-.72c-.42-.07-.85-.12-1.28-.15a17.7,17.7,0,0,1,2.8.22,21.94,21.94,0,0,1,3.18.72,18,18,0,0,1,2.83,1.13,11.39,11.39,0,0,1,2.25,1.53,8.06,8.06,0,0,1,1.57,2,14.37,14.37,0,0,1,1.68,5.56c.28,2.12.32,4.5.49,7a27.53,27.53,0,0,0,1.51,8,17.11,17.11,0,0,0,2.1,3.92,15.09,15.09,0,0,0,1.52,1.8,14,14,0,0,0,1.9,1.58,12.23,12.23,0,0,0,2.28,1.26,9.55,9.55,0,0,0,1.26.47l.65.2c.22.06.44.1.66.14a14.54,14.54,0,0,0,1.59.24,14.85,14.85,0,0,1-3.11-.31c-.22,0-.44-.08-.66-.14l-.65-.2a12.15,12.15,0,0,1-1.27-.47,12.74,12.74,0,0,1-2.27-1.26,14,14,0,0,1-1.9-1.58A15,15,0,0,1,116,62a17.32,17.32,0,0,1-2.1-3.92,27.89,27.89,0,0,1-1.52-8c-.16-2.53-.2-4.91-.48-7a14.54,14.54,0,0,0-1.68-5.56,8.1,8.1,0,0,0-1.58-2A11,11,0,0,0,106.41,34,18,18,0,0,0,103.58,32.91Z" class="cls-8" transform="translate(77.47)"/><polygon points="161.89 90.09 162.22 89.93 160.75 87.17 160.42 87.33 161.89 90.09" class="cls-9"/><path d="M84,91.57a.19.19,0,0,0,.19-.11l.49-1.24L86,90.6a.2.2,0,0,0,.24-.11.15.15,0,0,0-.11-.2l-1.69-.48-.62,1.55a.14.14,0,0,0,.11.2Z" class="cls-9" transform="translate(77.47)"/><path d="M84.38,82.54A3.26,3.26,0,0,0,79.78,81a2.89,2.89,0,0,0-1.44,4.38c1.11,2.09,3.79,4,5.46,3.19S85.49,84.63,84.38,82.54Z" class="cls-6" transform="translate(77.47)"/><path d="M84,84.13a.42.42,0,0,0-.54-.16.36.36,0,0,0-.19.49.41.41,0,0,0,.53.16A.37.37,0,0,0,84,84.13Z" class="cls-10" transform="translate(77.47)"/><path d="M79.93,86a.35.35,0,0,1,.19-.49.4.4,0,0,1,.54.15.36.36,0,0,1-.2.49A.41.41,0,0,1,79.93,86Z" class="cls-10" transform="translate(77.47)"/><path d="M144.63,187.78a18.36,18.36,0,0,1,2.82,12.77,8.86,8.86,0,0,1-.89,2.87,4.61,4.61,0,0,1-1.72,1.85,3.57,3.57,0,0,1-1,.41,2.37,2.37,0,0,1-.44,0,2,2,0,0,1-.42,0,2.7,2.7,0,0,1-.81-.31,3.74,3.74,0,0,1-.83-.71,8.13,8.13,0,0,1-1.45-2.38c-.37-.87-.71-2.07-1.16-3.29a14.87,14.87,0,0,0-2-3.91,9.13,9.13,0,0,0-4.62-3.2,11.46,11.46,0,0,0-6-.06,13.07,13.07,0,0,0-5.12,2.52,13.22,13.22,0,0,0-1.94,2,14,14,0,0,0-1.4,2.14,15.65,15.65,0,0,0-1.55,4.45,18.65,18.65,0,0,0-.25,4.4,15.13,15.13,0,0,0,.93,4.44,12.15,12.15,0,0,0,2.67,4.2,13,13,0,0,0,2,1.66,18.2,18.2,0,0,0,2.1,1.23c1.41.7,2.75,1.22,4,1.69.6.23,1.19.46,1.72.68s1,.44,1.5.68a14.81,14.81,0,0,1,4.77,3.55,9,9,0,0,1,1.39,2.2,7,7,0,0,1,.54,2.31,6.79,6.79,0,0,1-.27,2.31,5.86,5.86,0,0,1-1,1.86,6.11,6.11,0,0,1-1.68,1.32,9.24,9.24,0,0,1-2.43.86,14.2,14.2,0,0,1-3,.3,20.17,20.17,0,0,1-3.18-.22,24,24,0,0,1-3.18-.72,18.44,18.44,0,0,1-2.82-1.14,10.94,10.94,0,0,1-2.25-1.52,8.11,8.11,0,0,1-1.57-2,14.37,14.37,0,0,1-1.68-5.56c-.28-2.11-.32-4.49-.49-7a27.23,27.23,0,0,0-1.52-8,16.88,16.88,0,0,0-2.09-3.92,15.93,15.93,0,0,0-1.52-1.8,14.07,14.07,0,0,0-1.91-1.58,12.74,12.74,0,0,0-2.27-1.26,11.36,11.36,0,0,0-1.27-.47l-.65-.2-.66-.14a15.67,15.67,0,0,0-5.33-.16,16.74,16.74,0,0,0-5,1.53,14.87,14.87,0,0,0-4.22,3.06,12.81,12.81,0,0,0-2.66,4.19,12.15,12.15,0,0,0,0,8.93,8.67,8.67,0,0,0,.46,1l.27.5c.09.16.2.32.3.49l.32.47.36.46a10.66,10.66,0,0,0,.75.87,21.12,21.12,0,0,0,3.26,2.67c1.09.75,2.11,1.42,3,2.11q.67.53,1.23,1.05a9.23,9.23,0,0,1,1,1.16A8,8,0,0,1,97,232.07a6.08,6.08,0,0,1,.21,1.41,4.83,4.83,0,0,1-.14,1.41,6,6,0,0,1-1.46,2.62,5.42,5.42,0,0,1-2.7,1.54,8.83,8.83,0,0,1-3.51,0c-2.44-.4-4.9-1.55-7.73-1.88a10.27,10.27,0,0,0-2.15,0,9.53,9.53,0,0,0-2.13.47,6.46,6.46,0,0,0-1.9,1,4.59,4.59,0,0,0-1.32,1.6.24.24,0,0,0,.15.34.32.32,0,0,0,.37-.13h0a4.82,4.82,0,0,1,3-2,7.4,7.4,0,0,1,1.87-.26,8.89,8.89,0,0,1,1.85.21c2.47.51,4.66,1.83,7.39,2.58a11.37,11.37,0,0,0,4.49.4,9.21,9.21,0,0,0,2.37-.66,9,9,0,0,0,2.07-1.28,9.57,9.57,0,0,0,2.75-3.69,8.11,8.11,0,0,0,.57-2.2,8.91,8.91,0,0,0,0-2.19,10.5,10.5,0,0,0-1.39-4.05,13.91,13.91,0,0,0-1.23-1.76A16.54,16.54,0,0,0,96.92,224c-1-.94-2-1.74-3-2.52a17.32,17.32,0,0,1-2.37-2.27,5.06,5.06,0,0,1-.41-.57l-.19-.28-.16-.3c0-.11-.11-.2-.16-.3l-.13-.32a4.41,4.41,0,0,1-.23-.64A7.5,7.5,0,0,1,90,214a7.28,7.28,0,0,1,2.18-4.81A8.57,8.57,0,0,1,97.22,207a7.62,7.62,0,0,1,2.68.2c.1,0,.2,0,.3.08l.29.1a4.56,4.56,0,0,1,.55.24,6,6,0,0,1,.54.3c.16.12.34.22.51.36a9,9,0,0,1,2.9,4.5,21.65,21.65,0,0,1,.75,6.25c0,2.3-.1,4.78.11,7.47a21.19,21.19,0,0,0,2.18,8.3,15.55,15.55,0,0,0,2.92,3.85,18.86,18.86,0,0,0,3.94,2.86,23.2,23.2,0,0,0,4.37,1.85,31.89,31.89,0,0,0,4.54,1.08,26.4,26.4,0,0,0,9.92-.2,19.11,19.11,0,0,0,5.17-1.92,15.23,15.23,0,0,0,4.43-3.64,13.9,13.9,0,0,0,2.48-4.81,14.18,14.18,0,0,0,.46-4.94,13.84,13.84,0,0,0-1.25-4.66,15.9,15.9,0,0,0-2.62-3.92,20,20,0,0,0-3.46-3,24.66,24.66,0,0,0-4-2.26c-.68-.33-1.39-.62-2.07-.87s-1.32-.48-1.94-.69c-1.23-.43-2.35-.82-3.27-1.24a6,6,0,0,1-3.48-3.26,9,9,0,0,1-.66-2.6,12.53,12.53,0,0,1,0-2.87,8.91,8.91,0,0,1,.73-2.6,6.06,6.06,0,0,1,.62-1.09,6.21,6.21,0,0,1,.77-.88,5.46,5.46,0,0,1,2-1.12,4,4,0,0,1,2-.13l.2.05.18.07a2.65,2.65,0,0,1,.41.21,3.86,3.86,0,0,1,.79.67,9.62,9.62,0,0,1,1.47,2.46c.47,1,.85,2.12,1.51,3.45a13.1,13.1,0,0,0,2.67,3.66,8.89,8.89,0,0,0,2.19,1.54,8.11,8.11,0,0,0,2.95.81,8.29,8.29,0,0,0,3.14-.36,9.1,9.1,0,0,0,2.63-1.3,9.47,9.47,0,0,0,3.25-4,12.69,12.69,0,0,0,1-4.25,21,21,0,0,0-1-7.79,20.74,20.74,0,0,0-3.8-6.8,1.65,1.65,0,0,0-2.17-.21,1.34,1.34,0,0,0-.43,1.84Z" class="cls-6" transform="translate(77.47)"/><path d="M93.18,241.32a11.38,11.38,0,0,1-4.41-.4l-.64-.19a11.05,11.05,0,0,1,1.61-.48C91.07,240,93.3,240.29,93.18,241.32ZM108,213.87a3,3,0,0,1,.62,2.59,3.15,3.15,0,0,1-1.07,2.35,3.12,3.12,0,0,1-1.81.51,2,2,0,0,0,0-.25,22.81,22.81,0,0,0-.64-5.87h.84A3.42,3.42,0,0,1,108,213.87ZM97.92,228.26a5.36,5.36,0,0,0,.09-1.64,3.82,3.82,0,0,0-.94-1.44,1.74,1.74,0,0,1-.5-1.55l.35.32a16.54,16.54,0,0,1,1.47,1.54,13.91,13.91,0,0,1,1.23,1.76A10.5,10.5,0,0,1,101,231.3c0,.12,0,.25,0,.38a4.26,4.26,0,0,1-2-.89A3.11,3.11,0,0,1,97.92,228.26Zm-2.31,9.25a6,6,0,0,0,1.46-2.62,1.55,1.55,0,0,0,0-.21,2,2,0,0,1,1.22,1.46,2.27,2.27,0,0,1-1.26,2.07,5.34,5.34,0,0,1-2.62.6l-.71,0A5.77,5.77,0,0,0,95.61,237.51Zm-1.38-32.83c-.83.15-1.73-.13-2.49.24-1.4.68-.87,2.8-2.11,3.72-.75.57-1.88.45-2.72.91a2.64,2.64,0,0,0-1.24,2.16,22.91,22.91,0,0,0,.14,2.48,3.11,3.11,0,0,1-1.63,2.73,12.23,12.23,0,0,1,.55-7.24,12.81,12.81,0,0,1,2.66-4.19,14.87,14.87,0,0,1,4.22-3.06,16.81,16.81,0,0,1,4.3-1.41,2.79,2.79,0,0,1,.33,1A2.54,2.54,0,0,1,94.23,204.68ZM93,226.88c-.78-.57-1.64-1.14-2.55-1.77a21.12,21.12,0,0,1-3.26-2.67l-.29-.32a2.65,2.65,0,0,1,1.29-.88,2.07,2.07,0,0,1,2.36.74c.33.58.24,1.36.77,1.8s1.59.3,2.17.76a1.2,1.2,0,0,1,.31,1.36A2.35,2.35,0,0,1,93,226.88Zm-3-12.15a3.12,3.12,0,0,1-.76-.91,1.86,1.86,0,0,1-.08-1.89,2.77,2.77,0,0,1,1.56-1l.24-.08A7.52,7.52,0,0,0,90,214,5.3,5.3,0,0,0,90,214.73Zm51.16,22.9c.53-1.06-.14-2.43.71-3.31a2.2,2.2,0,0,1,2.47-.25,4.11,4.11,0,0,1,1.15.87,14.19,14.19,0,0,1-2.14,3.78,15.23,15.23,0,0,1-4.43,3.64l0,0,0,0a2.82,2.82,0,0,1,.6-3C140,238.77,140.78,238.34,141.13,237.63ZM133.42,239a3.17,3.17,0,0,1-2.3-.92,1.71,1.71,0,0,1-.19-1.63c.36,0,.72-.1,1.06-.17a9.24,9.24,0,0,0,2.43-.86,6.07,6.07,0,0,0,1.21-.85,4.52,4.52,0,0,1,1,1.17,2.14,2.14,0,0,1-.37,2.61A3.81,3.81,0,0,1,133.42,239Zm4-9.07a7,7,0,0,0-.54-2.31,9,9,0,0,0-1.39-2.2,12.71,12.71,0,0,0-2.32-2.09,2.12,2.12,0,0,1,.2-.24,3.54,3.54,0,0,1,3.38-.94,1.77,1.77,0,0,1,1.12.76c.4.7,0,1.59.2,2.35.35,1.16,2.05,1.61,2.4,2.76a2.06,2.06,0,0,1-1.07,2.2,4.45,4.45,0,0,1-2,.6A5.27,5.27,0,0,0,137.39,229.93Zm7.35-1a3.53,3.53,0,0,1-3-3.27,4.33,4.33,0,0,1,1.52-2.87c.17-.15.36-.33.57-.5a13.71,13.71,0,0,1,1.16,2.05,14,14,0,0,1,1.25,4.66A5.16,5.16,0,0,1,144.74,228.9Zm-40-21.71a2.33,2.33,0,0,1,.45,3.18,3.86,3.86,0,0,1-.86.9,8,8,0,0,0-2.28-3c-.17-.14-.35-.24-.51-.36a6,6,0,0,0-.54-.3,4.56,4.56,0,0,0-.55-.24l-.29-.1c-.1,0-.2,0-.3-.08a7.62,7.62,0,0,0-2.68-.2l-.34,0v0a3.29,3.29,0,0,1,.85-1.4,2.2,2.2,0,0,1,1.58-.62c1,.05,1.59.81,2.42,1.2S103.92,206.61,104.78,207.19Zm17.87,28.45a24,24,0,0,0,3.18.72c.56.08,1.13.14,1.69.18a3.72,3.72,0,0,1,.08.57,2.67,2.67,0,0,1-1.45,2.41,3.51,3.51,0,0,1-2.53.13,9.08,9.08,0,0,1-2.23-1.1,5.77,5.77,0,0,1-2.33-2.08,5.23,5.23,0,0,1-.25-2.57,10.12,10.12,0,0,0,1,.6A18.44,18.44,0,0,0,122.65,235.64Zm6.54-14.45c-.53-.22-1.12-.45-1.72-.68-1.19-.46-2.51-1-3.88-1.65,0-.21.1-.44.16-.66a2.49,2.49,0,0,1,.83-1.45,3.43,3.43,0,0,1,2-.44,4.57,4.57,0,0,1,2.57.47,2.35,2.35,0,0,1,1,1.88,3.6,3.6,0,0,1-.9,2.54Zm-2.31,21.88c1.43,0,2.89-.35,4.31-.2a3.28,3.28,0,0,1,2.5,1.42,26.66,26.66,0,0,1-9.89.19c-.88-.15-1.74-.32-2.59-.53a4.92,4.92,0,0,1,2.3-1A25.35,25.35,0,0,1,126.88,243.07Zm-11.77-5.41a3,3,0,0,1,.77,1.64,9.9,9.9,0,0,1,.2,2.43c0,.13,0,.27,0,.41-.39-.18-.78-.38-1.15-.59a18.86,18.86,0,0,1-3.94-2.86l-.46-.46a6.81,6.81,0,0,1,1.05-.69A3.26,3.26,0,0,1,115.11,237.66Zm-4-18.37a2.12,2.12,0,0,1,.47-2.69,6.06,6.06,0,0,1,2-1.32c.16,1.07.25,2.13.32,3.15,0,.61.07,1.21.11,1.8a5.12,5.12,0,0,1-.56,0A3.21,3.21,0,0,1,111.08,219.29Zm35.48-15.87a6.15,6.15,0,0,0,.42-1l.08.07a2.34,2.34,0,0,1,.29,2.62,3.78,3.78,0,0,1-3.08,1.55,3,3,0,0,1-2.56-.85,2.16,2.16,0,0,1-.39-1.16,3.74,3.74,0,0,0,.83.71,2.7,2.7,0,0,0,.81.31,2,2,0,0,0,.42,0,2.37,2.37,0,0,0,.44,0,3.57,3.57,0,0,0,1-.41A4.61,4.61,0,0,0,146.56,203.42Zm1.31-14.49a1.32,1.32,0,0,1,.62-1.12,19.39,19.39,0,0,1,1.53,2.65C149.12,190.19,147.94,189.73,147.87,188.93Zm-11,19.32a13.3,13.3,0,0,1-2.62-3.61c-.59-1.18-.95-2.19-1.36-3.11a1.94,1.94,0,0,1,1.71-.23,2.16,2.16,0,0,1,1.08,1.24,6.13,6.13,0,0,0,.69,1.49c.49.64,1.36,1,1.71,1.73A2,2,0,0,1,136.88,208.25Zm1.66,11.5a3.15,3.15,0,0,1-2.63-1.81,4.67,4.67,0,0,0-.41-1.28,2.31,2.31,0,0,0-1.72-.73,6.57,6.57,0,0,1-1.95-.28,2,2,0,0,1-1.14-2.23l.27.1c.62.21,1.27.44,1.94.69s1.39.54,2.07.87a24.66,24.66,0,0,1,4,2.26,21.4,21.4,0,0,1,2.74,2.3A8.74,8.74,0,0,1,138.54,219.75Zm9-23.59a18.5,18.5,0,0,0-1-4.44,2.55,2.55,0,0,1,1.5.1,2.51,2.51,0,0,1,1.49,1.79,2,2,0,0,1-.16,1.42A2.63,2.63,0,0,1,147.57,196.16Zm4.19,6.75a2.57,2.57,0,0,1-1.08-.72,2.69,2.69,0,0,1-.7-2.34,2.59,2.59,0,0,1,1.23-1.81,2.45,2.45,0,0,1,.81-.29,21.13,21.13,0,0,1,0,3A14.08,14.08,0,0,1,151.76,202.91ZM147.84,209a9.1,9.1,0,0,1-2.63,1.3,8.13,8.13,0,0,1-2,.37,1.51,1.51,0,0,1,.61-1,4.11,4.11,0,0,1,1.75-.57c.85-.21,1.05-.56,1.62-1.13a2.3,2.3,0,0,1,2.33-.45A9.31,9.31,0,0,1,147.84,209Zm-40.51-2.21c-.9-.77-.87-2.2-1.87-2.85-.8-.52-2-.34-2.89-.65a3.12,3.12,0,0,1-1.85-1.79c-.1-.22-.19-.45-.27-.66a12.33,12.33,0,0,1,1.5.23l.66.14.65.2a11.36,11.36,0,0,1,1.27.47,12.74,12.74,0,0,1,2.27,1.26,14.07,14.07,0,0,1,1.91,1.58,15.93,15.93,0,0,1,1.52,1.8l.19.27A2.76,2.76,0,0,1,107.33,206.78ZM116,231a7.84,7.84,0,0,0,.48.74,2.31,2.31,0,0,1-.36.25,1.82,1.82,0,0,1-2.9-1.89,5.65,5.65,0,0,0,0-2.05c-.3-.94-1.3-1.63-1.37-2.62-.09-1.28,1-2.07,2.26-2.2,0,.76.11,1.5.21,2.21A14.37,14.37,0,0,0,116,231Zm-8.33,1.43a3,3,0,0,1-.67,0,23.61,23.61,0,0,1-1.16-5.89c-.08-1-.11-2-.12-2.93a2,2,0,0,1,1.51-.11,2,2,0,0,1,1.07,2,6.77,6.77,0,0,0,0,2.42c.34.94,1.35,1.65,1.34,2.66A2.14,2.14,0,0,1,107.68,232.45Zm10.25-23.52a4.57,4.57,0,0,1,1.91,2.35,1.5,1.5,0,0,1-.31,1.72,2.06,2.06,0,0,1-1.25.33c-.26,0-.53,0-.81,0a13.16,13.16,0,0,1-.73-1.58,14.55,14.55,0,0,1-.76-2.93A1.72,1.72,0,0,1,117.93,208.93Zm-.46-10.22.14-.27a14,14,0,0,1,1.4-2.14,13.22,13.22,0,0,1,1.94-2c.11-.09.22-.18.34-.26a1.64,1.64,0,0,1,.25.21,2.19,2.19,0,0,1,.23,2.8A4.9,4.9,0,0,1,117.47,198.71Zm12.67-3.8a5,5,0,0,1-3.69-2.1,5.21,5.21,0,0,1-.5-.95l.12,0a11.46,11.46,0,0,1,6,.06,9.25,9.25,0,0,1,2.47,1.18l-.22.27A5.21,5.21,0,0,1,130.14,194.91Zm6.74,3.87a2.54,2.54,0,0,1-.55-2.84,2.25,2.25,0,0,1,.46-.69,15.35,15.35,0,0,1,1.92,3.75l.17.48A3.21,3.21,0,0,1,136.88,198.78Zm-13.29,4.77a12.53,12.53,0,0,0,0,2.87,9.86,9.86,0,0,0,.19,1.13,4.6,4.6,0,0,1-2.51-.6,2.65,2.65,0,0,1-1.12-3.31c.32-.68,1-1.21,1.24-1.9s.2-1.52.79-2a2,2,0,0,1,2.5.28l.14.13a5.53,5.53,0,0,0-.46.83A8.91,8.91,0,0,0,123.59,203.55Z" class="cls-7" transform="translate(77.47)"/><path d="M90.11,239.15a11.37,11.37,0,0,1-2.23-.18c-2.44-.41-4.9-1.55-7.73-1.88h0a9.63,9.63,0,0,1,1.53.07c2.83.33,5.29,1.48,7.73,1.88Zm2-29.92A7.28,7.28,0,0,0,90,214a7.5,7.5,0,0,0,.32,2.71,4.41,4.41,0,0,0,.23.64l.13.32c0,.1.11.19.16.3l.16.3.19.28a5.06,5.06,0,0,0,.41.57A17.32,17.32,0,0,0,94,221.43c.92.78,2,1.58,3,2.52a16.54,16.54,0,0,1,1.47,1.54,13.91,13.91,0,0,1,1.23,1.76A10.5,10.5,0,0,1,101,231.3a8.91,8.91,0,0,1,0,2.19,8.11,8.11,0,0,1-.57,2.2,9.57,9.57,0,0,1-2.75,3.69,9,9,0,0,1-2.07,1.28,9.21,9.21,0,0,1-2.37.66,10.37,10.37,0,0,1-2.49,0c.32,0,.64,0,1-.07a9.17,9.17,0,0,0,2.38-.66,9.31,9.31,0,0,0,2.07-1.28,9.67,9.67,0,0,0,2.75-3.69,8.49,8.49,0,0,0,.57-2.2,8.91,8.91,0,0,0,0-2.19,10.5,10.5,0,0,0-1.39-4,12.61,12.61,0,0,0-1.23-1.76,15.38,15.38,0,0,0-1.47-1.54c-1-.94-2.05-1.75-3-2.52a17.32,17.32,0,0,1-2.37-2.27,5.06,5.06,0,0,1-.41-.57l-.19-.28-.16-.31c0-.1-.11-.19-.16-.3l-.13-.31a4.41,4.41,0,0,1-.23-.64,7.5,7.5,0,0,1-.32-2.71,7.28,7.28,0,0,1,2.18-4.81A8.51,8.51,0,0,1,95.7,207a8.16,8.16,0,0,1,1.92.05,2.68,2.68,0,0,0-.4,0A8.57,8.57,0,0,0,92.16,209.23ZM74.69,240.41h0a.32.32,0,0,1-.37.13.24.24,0,0,1-.15-.34,4.59,4.59,0,0,1,1.32-1.6l.24-.17a2.77,2.77,0,0,1,.41-.12,7.4,7.4,0,0,1,1.87-.26,9,9,0,0,1,1.15.09,7.57,7.57,0,0,0-1.5.24A4.82,4.82,0,0,0,74.69,240.41Zm67.16-34.76a1.46,1.46,0,0,1-.41,0,2.26,2.26,0,0,1-.81-.31,3.66,3.66,0,0,1-.84-.7,8.47,8.47,0,0,1-1.44-2.38c-.37-.87-.71-2.07-1.16-3.29a14.87,14.87,0,0,0-2-3.91,9.13,9.13,0,0,0-4.62-3.2,10.66,10.66,0,0,0-1.77-.35,10.85,10.85,0,0,1,3.29.42,9.13,9.13,0,0,1,4.62,3.2,14.87,14.87,0,0,1,2,3.91c.45,1.22.79,2.42,1.16,3.29a8.13,8.13,0,0,0,1.45,2.38,3.74,3.74,0,0,0,.83.71l.36.17-.21,0A1.45,1.45,0,0,1,141.85,205.65Zm9.24-.67a9.47,9.47,0,0,1-3.25,4,9.1,9.1,0,0,1-2.63,1.3,8.29,8.29,0,0,1-3.14.36l-.48-.06a8,8,0,0,0,2.1-.37,9.1,9.1,0,0,0,2.63-1.3,9.55,9.55,0,0,0,3.25-4,12.69,12.69,0,0,0,1-4.25,21,21,0,0,0-1-7.79,20.74,20.74,0,0,0-3.8-6.8,1.48,1.48,0,0,0-.36-.3,1.62,1.62,0,0,1,1.88.37,20.74,20.74,0,0,1,3.8,6.8,21,21,0,0,1,1,7.79A12.69,12.69,0,0,1,151.09,205Zm-22.71-7.27h0a4,4,0,0,0-.67.15,5.46,5.46,0,0,0-2,1.12,6.21,6.21,0,0,0-.77.88,6.06,6.06,0,0,0-.62,1.09,8.91,8.91,0,0,0-.73,2.6,12.53,12.53,0,0,0,0,2.87,9,9,0,0,0,.66,2.6,6,6,0,0,0,3.48,3.26c.92.42,2,.81,3.27,1.24.62.21,1.27.44,1.94.69s1.39.54,2.07.87a24.66,24.66,0,0,1,4,2.26,20,20,0,0,1,3.46,3,15.9,15.9,0,0,1,2.62,3.92,13.84,13.84,0,0,1,1.25,4.66,14.18,14.18,0,0,1-.46,4.94,13.9,13.9,0,0,1-2.48,4.81,15.23,15.23,0,0,1-4.43,3.64,19.11,19.11,0,0,1-5.17,1.92,25.67,25.67,0,0,1-7.45.49,25.37,25.37,0,0,0,5.93-.56,19.11,19.11,0,0,0,5.17-1.92,15.1,15.1,0,0,0,4.43-3.65,13.73,13.73,0,0,0,2.48-4.81,13.84,13.84,0,0,0-.79-9.59,15.9,15.9,0,0,0-2.62-3.92,19.6,19.6,0,0,0-3.46-3,25.5,25.5,0,0,0-4-2.27c-.68-.32-1.39-.61-2.07-.86s-1.32-.48-1.94-.69c-1.24-.43-2.35-.82-3.27-1.24a6,6,0,0,1-3.48-3.26,8.78,8.78,0,0,1-.66-2.6,12.52,12.52,0,0,1,0-2.87,9.06,9.06,0,0,1,.73-2.61,6.33,6.33,0,0,1,.62-1.08,6.89,6.89,0,0,1,.76-.88,5.39,5.39,0,0,1,2-1.12,4,4,0,0,1,2-.13Zm-5.73,37.93a24,24,0,0,0,3.18.72l1.29.15a20.58,20.58,0,0,1-2.81-.22,24,24,0,0,1-3.18-.72,18.44,18.44,0,0,1-2.82-1.14,11.36,11.36,0,0,1-2.25-1.52,8.61,8.61,0,0,1-1.58-2,14.54,14.54,0,0,1-1.67-5.56c-.28-2.12-.32-4.5-.49-7a27.23,27.23,0,0,0-1.52-8,17.27,17.27,0,0,0-2.09-3.92,15.93,15.93,0,0,0-1.52-1.8,14.07,14.07,0,0,0-1.91-1.58A12.74,12.74,0,0,0,103,201.8a11.36,11.36,0,0,0-1.27-.47l-.65-.2c-.22-.06-.44-.1-.66-.14a13.84,13.84,0,0,0-1.59-.24,14.85,14.85,0,0,1,3.11.31l.66.14.65.2a11.36,11.36,0,0,1,1.27.47,12.74,12.74,0,0,1,2.27,1.26,14.07,14.07,0,0,1,1.91,1.58,15.93,15.93,0,0,1,1.52,1.8,16.88,16.88,0,0,1,2.09,3.92,27.23,27.23,0,0,1,1.52,8c.17,2.54.21,4.92.49,7A14.37,14.37,0,0,0,116,231a8.11,8.11,0,0,0,1.57,2,10.94,10.94,0,0,0,2.25,1.52A18.44,18.44,0,0,0,122.65,235.64Z" class="cls-8" transform="translate(77.47)"/><polygon points="219.29 178.46 218.96 178.61 220.42 181.37 220.75 181.21 219.29 178.46" class="cls-9"/><path d="M142.23,177a.2.2,0,0,0-.19.12l-.5,1.23-1.35-.38a.19.19,0,0,0-.23.11.15.15,0,0,0,.11.21l1.69.47.62-1.55a.15.15,0,0,0-.11-.2Z" class="cls-9" transform="translate(77.47)"/><path d="M141.85,186a3.26,3.26,0,0,0,4.61,1.58,2.89,2.89,0,0,0,1.44-4.38c-1.11-2.09-3.79-4-5.46-3.19S140.74,183.91,141.85,186Z" class="cls-6" transform="translate(77.47)"/><path d="M142.25,184.42a.42.42,0,0,0,.54.15.37.37,0,0,0,.19-.49.39.39,0,0,0-.53-.15A.36.36,0,0,0,142.25,184.42Z" class="cls-10" transform="translate(77.47)"/><path d="M146.31,182.53a.37.37,0,0,1-.2.49.39.39,0,0,1-.53-.15.36.36,0,0,1,.19-.49A.43.43,0,0,1,146.31,182.53Z" class="cls-10" transform="translate(77.47)"/><g class="cls-11"><path d="M198.81,93.45a21.48,21.48,0,0,1-4-16.31,10.5,10.5,0,0,1,1.28-3.67,6.16,6.16,0,0,1,2.46-2.35,5.08,5.08,0,0,1,1.46-.53,3.72,3.72,0,0,1,.64-.06,3.1,3.1,0,0,1,.6,0,3.76,3.76,0,0,1,1.15.4,4.76,4.76,0,0,1,1.2.9,10.48,10.48,0,0,1,2.08,3c.52,1.12,1,2.65,1.66,4.21a18.21,18.21,0,0,0,2.91,5,13.2,13.2,0,0,0,6.63,4.08,18.28,18.28,0,0,0,8.57.09,19.92,19.92,0,0,0,7.34-3.22,18.77,18.77,0,0,0,2.77-2.49,16.92,16.92,0,0,0,2-2.74,18.43,18.43,0,0,0,2.2-5.68,20.88,20.88,0,0,0,.37-5.61,17.53,17.53,0,0,0-1.34-5.67A15.31,15.31,0,0,0,235,57.5a18.73,18.73,0,0,0-2.84-2.12,28.3,28.3,0,0,0-3-1.58c-2-.89-3.93-1.55-5.68-2.15-.86-.3-1.7-.58-2.47-.87s-1.46-.56-2.15-.87A21.1,21.1,0,0,1,212,45.37a11.05,11.05,0,0,1-2-2.8,8,8,0,0,1-.78-3,7.84,7.84,0,0,1,.39-2.95A7,7,0,0,1,211,34.3a8.76,8.76,0,0,1,2.42-1.7,14,14,0,0,1,3.48-1.09,23.12,23.12,0,0,1,4.26-.38,31.9,31.9,0,0,1,4.56.28,35.23,35.23,0,0,1,4.55.92,29.12,29.12,0,0,1,4,1.45,16.2,16.2,0,0,1,3.22,1.95,10.92,10.92,0,0,1,2.26,2.49,17.2,17.2,0,0,1,2.4,7.1c.4,2.71.46,5.75.7,9a31.89,31.89,0,0,0,2.17,10.22,21.79,21.79,0,0,0,3,5,18.68,18.68,0,0,0,2.18,2.29,19.64,19.64,0,0,0,2.72,2,19,19,0,0,0,3.26,1.6,16.15,16.15,0,0,0,1.82.6l.93.25c.31.08.63.13.94.19a25.13,25.13,0,0,0,7.64.2,26,26,0,0,0,7.19-2,21.39,21.39,0,0,0,6-3.9,16.43,16.43,0,0,0,3.82-5.35,14,14,0,0,0,0-11.41,12.6,12.6,0,0,0-.67-1.32l-.38-.64c-.14-.21-.3-.41-.44-.62l-.46-.61-.51-.59c-.34-.4-.71-.75-1.07-1.1a30.43,30.43,0,0,0-4.68-3.42c-1.55-1-3-1.81-4.3-2.69-.63-.44-1.22-.89-1.75-1.34A13.57,13.57,0,0,1,269,40.26a10.06,10.06,0,0,1-1.9-3.37,7.46,7.46,0,0,1-.31-1.81,6.09,6.09,0,0,1,.21-1.79,7.34,7.34,0,0,1,2.09-3.35,8.11,8.11,0,0,1,3.88-2,14.34,14.34,0,0,1,5,0c3.5.52,7,2,11.07,2.41a16.72,16.72,0,0,0,3.09.05,14.84,14.84,0,0,0,3.05-.6,10.06,10.06,0,0,0,2.72-1.31,6.1,6.1,0,0,0,1.89-2,.3.3,0,0,0-.21-.43.49.49,0,0,0-.53.16h0a7.05,7.05,0,0,1-4.25,2.59,11.47,11.47,0,0,1-2.67.32,14.89,14.89,0,0,1-2.66-.26c-3.54-.65-6.67-2.33-10.59-3.3a18,18,0,0,0-6.43-.5,13.8,13.8,0,0,0-3.39.84,13,13,0,0,0-3,1.62,12.47,12.47,0,0,0-3.94,4.73,9.16,9.16,0,0,0-.82,2.8,10.5,10.5,0,0,0,0,2.8,12.43,12.43,0,0,0,2,5.17,16.28,16.28,0,0,0,1.76,2.25,21.4,21.4,0,0,0,2.1,2c1.45,1.21,2.94,2.23,4.26,3.22a24,24,0,0,1,3.4,2.91,7.47,7.47,0,0,1,.59.72l.27.36.22.39c.08.13.16.25.23.38l.18.4a4.89,4.89,0,0,1,.34.82,8.66,8.66,0,0,1,.46,3.46A8.9,8.9,0,0,1,274,66.05a13.41,13.41,0,0,1-11.08,2.55l-.44-.1-.41-.14a6.16,6.16,0,0,1-.79-.3c-.26-.09-.51-.26-.77-.38s-.5-.29-.73-.46a11.54,11.54,0,0,1-4.16-5.75,24.91,24.91,0,0,1-1.08-8c0-2.94.14-6.1-.14-9.54a25,25,0,0,0-3.14-10.6,20.08,20.08,0,0,0-4.18-4.92,27.5,27.5,0,0,0-5.64-3.65,37.28,37.28,0,0,0-6.26-2.37A52,52,0,0,0,228.65,21a42.25,42.25,0,0,0-14.2.25A30,30,0,0,0,207,23.74a21.26,21.26,0,0,0-6.34,4.66,17.1,17.1,0,0,0-3.56,6.14,16.09,16.09,0,0,0-.66,6.3,16.42,16.42,0,0,0,1.79,6,20.53,20.53,0,0,0,3.75,5,27.61,27.61,0,0,0,5,3.89,36.82,36.82,0,0,0,5.66,2.9c1,.41,2,.78,3,1.1s1.89.61,2.78.89c1.77.54,3.36,1,4.69,1.58,2.69,1.11,4,2.15,5,4.16a10.5,10.5,0,0,1,.93,3.32,13.59,13.59,0,0,1,0,3.66,10.55,10.55,0,0,1-1,3.33,8.17,8.17,0,0,1-2,2.51,7.82,7.82,0,0,1-2.87,1.43,6.18,6.18,0,0,1-2.85.17l-.29-.06a1.14,1.14,0,0,0-.26-.09,3.38,3.38,0,0,1-.58-.27,5,5,0,0,1-1.14-.86,12.32,12.32,0,0,1-2.1-3.14c-.68-1.29-1.22-2.71-2.16-4.4a17.5,17.5,0,0,0-3.83-4.68,12.68,12.68,0,0,0-7.36-3,13.06,13.06,0,0,0-4.51.44,14.2,14.2,0,0,0-3.76,1.67,12.51,12.51,0,0,0-4.66,5.12,14.4,14.4,0,0,0-1.39,5.43,24.13,24.13,0,0,0,1.47,10,26,26,0,0,0,5.45,8.68,2.55,2.55,0,0,0,3.1.27,1.6,1.6,0,0,0,.63-2.35Z" class="cls-6" transform="translate(77.47)"/><path d="M272.53,25.07a18.33,18.33,0,0,1,6.32.51l.92.25a17.82,17.82,0,0,1-2.31.61C275.55,26.79,272.35,26.4,272.53,25.07ZM251.29,60.13a3.48,3.48,0,0,1-.9-3.31,3.9,3.9,0,0,1,1.53-3,4.94,4.94,0,0,1,2.61-.65v.32a26.55,26.55,0,0,0,.92,7.49c-.4,0-.81,0-1.2,0A5.24,5.24,0,0,1,251.29,60.13Zm14.45-18.37a6.44,6.44,0,0,0-.13,2.09A4.9,4.9,0,0,0,267,45.68a2.09,2.09,0,0,1,.72,2l-.51-.41a21.4,21.4,0,0,1-2.1-2A16.28,16.28,0,0,1,263.31,43a12.43,12.43,0,0,1-2-5.17c0-.16,0-.32-.05-.48a6.32,6.32,0,0,1,2.92,1.13A3.79,3.79,0,0,1,265.74,41.76Zm3.31-11.82A7.34,7.34,0,0,0,267,33.29l-.06.26a2.6,2.6,0,0,1-1.74-1.86A2.86,2.86,0,0,1,267,29.05a8.53,8.53,0,0,1,3.76-.77q.53,0,1,0A7.94,7.94,0,0,0,269.05,29.94Zm2,41.92c1.19-.19,2.48.17,3.56-.3,2-.87,1.26-3.58,3-4.76,1.08-.72,2.69-.57,3.9-1.16a3.31,3.31,0,0,0,1.78-2.76,27.94,27.94,0,0,0-.21-3.16,4,4,0,0,1,2.33-3.49,13.93,13.93,0,0,1,.46,3.46,14.42,14.42,0,0,1-1.23,5.79,16.43,16.43,0,0,1-3.82,5.35,21.39,21.39,0,0,1-6,3.9,25.67,25.67,0,0,1-6.17,1.81,3,3,0,0,1-.46-1.24A3.31,3.31,0,0,1,271,71.86Zm1.8-28.35c1.11.74,2.34,1.46,3.64,2.26a30.43,30.43,0,0,1,4.68,3.42l.42.41a4,4,0,0,1-1.86,1.12,3.19,3.19,0,0,1-3.38-.95c-.47-.74-.35-1.74-1.1-2.3s-2.28-.38-3.12-1a1.41,1.41,0,0,1-.43-1.74A3,3,0,0,1,272.83,43.51ZM277.14,59a4.34,4.34,0,0,1,1.09,1.16,2.18,2.18,0,0,1,.11,2.41,4.09,4.09,0,0,1-2.24,1.33l-.34.09a8.91,8.91,0,0,0,1.36-4.11A8.55,8.55,0,0,0,277.14,59ZM203.82,29.79c-.74,1.35.21,3.1-1,4.23a3.53,3.53,0,0,1-3.55.32,6,6,0,0,1-1.64-1.12,17.19,17.19,0,0,1,3.07-4.82A21.26,21.26,0,0,1,207,23.74l.06,0,0,.07a3.3,3.3,0,0,1-.85,3.79C205.49,28.33,204.32,28.88,203.82,29.79ZM214.87,28a4.92,4.92,0,0,1,3.31,1.18,2,2,0,0,1,.27,2.08c-.52.06-1,.13-1.52.22a14,14,0,0,0-3.48,1.09,8.25,8.25,0,0,0-1.73,1.1,6.26,6.26,0,0,1-1.48-1.5,2.53,2.53,0,0,1,.54-3.34A6.07,6.07,0,0,1,214.87,28Zm-5.68,11.59a8,8,0,0,0,.78,3,11.05,11.05,0,0,0,2,2.8,17.43,17.43,0,0,0,3.33,2.68,4.11,4.11,0,0,1-.29.31,5.52,5.52,0,0,1-4.84,1.2,2.62,2.62,0,0,1-1.61-1c-.57-.89,0-2-.29-3-.5-1.48-2.93-2-3.43-3.52-.35-1,.41-2.18,1.53-2.81a7.07,7.07,0,0,1,2.86-.77A8.68,8.68,0,0,0,209.19,39.62Zm-10.54,1.32c2.39.44,4.33,2.18,4.27,4.16a5.3,5.3,0,0,1-2.17,3.67c-.24.2-.52.42-.82.64a18.6,18.6,0,0,1-1.66-2.61,16.32,16.32,0,0,1-1.79-5.95A8.28,8.28,0,0,1,198.65,40.94Zm57.26,27.72a2.76,2.76,0,0,1-.64-4.06,5,5,0,0,1,1.22-1.15,10.65,10.65,0,0,0,3.28,3.77c.23.17.49.3.73.46s.51.29.77.38a6.16,6.16,0,0,0,.79.3l.41.14.44.1a13,13,0,0,0,3.84.26l.48-.06s0,0,0,0A4.11,4.11,0,0,1,266,70.62a3.41,3.41,0,0,1-2.27.8c-1.36-.07-2.28-1-3.47-1.53C258.9,69.32,257.14,69.4,255.91,68.66ZM230.3,32.33a35.23,35.23,0,0,0-4.55-.92c-.8-.11-1.61-.18-2.42-.23a3.58,3.58,0,0,1-.11-.73,3.37,3.37,0,0,1,2.07-3.08,5.71,5.71,0,0,1,3.63-.17,13.69,13.69,0,0,1,3.19,1.41,8.13,8.13,0,0,1,3.35,2.66,6.11,6.11,0,0,1,.35,3.27c-.46-.26-.95-.52-1.46-.76A29.12,29.12,0,0,0,230.3,32.33Zm-9.37,18.45c.77.29,1.61.57,2.47.87,1.71.59,3.59,1.23,5.56,2.1-.07.28-.14.56-.22.85a3.17,3.17,0,0,1-1.2,1.85,5.37,5.37,0,0,1-2.84.56,7.29,7.29,0,0,1-3.68-.59A3,3,0,0,1,219.6,54a4.29,4.29,0,0,1,1.29-3.24Zm3.32-27.94c-2.06,0-4.14.45-6.18.26a4.92,4.92,0,0,1-3.58-1.82A42.53,42.53,0,0,1,228.65,21c1.28.19,2.51.41,3.73.68A7.51,7.51,0,0,1,229.07,23,41,41,0,0,1,224.25,22.84Zm16.87,6.9A3.69,3.69,0,0,1,240,27.65a11.13,11.13,0,0,1-.27-3.1,3.05,3.05,0,0,1,.05-.52q.84.34,1.65.75a27.5,27.5,0,0,1,5.64,3.65l.66.59a11.19,11.19,0,0,1-1.5.88C244.61,30.67,242.36,30.78,241.12,29.74Zm5.76,23.47c.86,1,.39,2.48-.67,3.44a9.15,9.15,0,0,1-2.82,1.68c-.22-1.37-.36-2.72-.46-4-.06-.77-.11-1.54-.15-2.29.27,0,.54,0,.8,0A4.88,4.88,0,0,1,246.88,53.21ZM196.05,73.47a8.63,8.63,0,0,0-.61,1.26.94.94,0,0,1-.1-.1,2.7,2.7,0,0,1-.42-3.34c.82-1.26,2.68-1.9,4.41-2A4.68,4.68,0,0,1,203,70.39a2.63,2.63,0,0,1,.57,1.49,4.76,4.76,0,0,0-1.2-.9,3.76,3.76,0,0,0-1.15-.4,3.1,3.1,0,0,0-.6,0,3.72,3.72,0,0,0-.64.06,5.08,5.08,0,0,0-1.46.53A6.16,6.16,0,0,0,196.05,73.47ZM194.18,92a1.67,1.67,0,0,1-.9,1.44A26.46,26.46,0,0,1,191.09,90C192.38,90.37,194.08,91,194.18,92ZM209.92,67.3a17.34,17.34,0,0,1,3.76,4.62c.83,1.5,1.36,2.79,1.94,4a3,3,0,0,1-2.45.3,2.85,2.85,0,0,1-1.54-1.59,7.48,7.48,0,0,0-1-1.9c-.71-.81-2-1.29-2.45-2.21C207.57,69.35,208.48,67.87,209.92,67.3Zm-2.38-14.68c1.66.21,3.28,1,3.77,2.3a5.61,5.61,0,0,0,.59,1.65,3.51,3.51,0,0,0,2.46.93,10.24,10.24,0,0,1,2.8.36,2.47,2.47,0,0,1,1.63,2.84l-.39-.12c-.89-.28-1.81-.56-2.78-.89s-2-.69-3-1.1a36.82,36.82,0,0,1-5.66-2.9,29.75,29.75,0,0,1-3.94-2.92A13.93,13.93,0,0,1,207.54,52.62ZM194.6,82.74A21.51,21.51,0,0,0,196,88.42a4.22,4.22,0,0,1-2.15-.13A3.35,3.35,0,0,1,191.74,86a2.31,2.31,0,0,1,.23-1.81A3.82,3.82,0,0,1,194.6,82.74Zm-6-8.62a3.87,3.87,0,0,1,1.55.93,3.16,3.16,0,0,1,1,3,3.38,3.38,0,0,1-1.76,2.31,3.5,3.5,0,0,1-1.16.37,24.06,24.06,0,0,1-.06-3.8A16.58,16.58,0,0,1,188.6,74.12Zm5.62-7.76A14.2,14.2,0,0,1,198,64.69a13.43,13.43,0,0,1,2.88-.46,1.92,1.92,0,0,1-.86,1.31,6.19,6.19,0,0,1-2.52.73,4.25,4.25,0,0,0-2.32,1.45,3.6,3.6,0,0,1-3.34.57A12.45,12.45,0,0,1,194.22,66.36Zm58,2.82c1.28,1,1.24,2.81,2.68,3.64,1.15.67,2.8.43,4.14.83a4.31,4.31,0,0,1,2.66,2.29c.13.29.26.57.37.84-.72-.06-1.44-.16-2.15-.29-.31-.06-.63-.11-.94-.19l-.93-.25a16.15,16.15,0,0,1-1.82-.6,19,19,0,0,1-3.26-1.6,19.64,19.64,0,0,1-2.72-2,18.68,18.68,0,0,1-2.18-2.29l-.27-.35A4.36,4.36,0,0,1,252.26,69.18Zm-12.43-31c-.22-.33-.46-.64-.7-.94a4.39,4.39,0,0,1,.51-.32A3.41,3.41,0,0,1,243,37a2.55,2.55,0,0,1,.85,2.42,6.2,6.2,0,0,0,0,2.61c.42,1.21,1.86,2.09,2,3.35.12,1.63-1.51,2.65-3.23,2.81-.08-1-.17-1.92-.31-2.83A17.2,17.2,0,0,0,239.83,38.22Zm11.93-1.82a4.39,4.39,0,0,1,1,0A27.82,27.82,0,0,1,254.39,44c.1,1.29.15,2.53.16,3.75a3.17,3.17,0,0,1-2.16.13,2.5,2.5,0,0,1-1.53-2.6,8,8,0,0,0-.08-3.09c-.48-1.2-1.93-2.12-1.92-3.4S250.28,36.52,251.76,36.4Zm-14.68,30a6,6,0,0,1-2.74-3,1.78,1.78,0,0,1,.43-2.2,3.23,3.23,0,0,1,1.81-.41c.36,0,.75,0,1.15,0a16.11,16.11,0,0,1,1,2,17,17,0,0,1,1.1,3.73A2.7,2.7,0,0,1,237.08,66.44Zm.65,13c-.07.11-.13.23-.19.34a16.92,16.92,0,0,1-2,2.74,18.77,18.77,0,0,1-2.77,2.49c-.16.12-.33.22-.49.33a2.42,2.42,0,0,1-.36-.27,2.6,2.6,0,0,1-.34-3.57A7.52,7.52,0,0,1,237.73,79.49Zm-18.16,4.86A7.35,7.35,0,0,1,224.86,87a6.24,6.24,0,0,1,.72,1.22l-.17,0a18.28,18.28,0,0,1-8.57-.09,13.27,13.27,0,0,1-3.53-1.5c.1-.11.19-.23.3-.34A8,8,0,0,1,219.57,84.35Zm-9.66-4.95a3,3,0,0,1,.8,3.63,2.87,2.87,0,0,1-.66.87,18.44,18.44,0,0,1-2.75-4.78c-.08-.21-.17-.41-.25-.61A4.89,4.89,0,0,1,209.91,79.4ZM229,73.3a13.59,13.59,0,0,0,0-3.66,9.41,9.41,0,0,0-.27-1.44,7.16,7.16,0,0,1,3.6.77c1.61.91,2.43,2.72,1.61,4.23-.47.86-1.38,1.54-1.78,2.42s-.29,1.94-1.14,2.59a3.16,3.16,0,0,1-3.58-.35l-.19-.17a7.56,7.56,0,0,0,.66-1.06A10.55,10.55,0,0,0,229,73.3Z" class="cls-7" transform="translate(77.47)"/><path d="M276.93,27.85a17.52,17.52,0,0,1,3.2.22c3.5.52,7,2,11.07,2.41h0a17.58,17.58,0,0,1-2.19-.09C285,30,281.45,28.5,278,28ZM274,66.05a8.9,8.9,0,0,0,3.13-6.14,8.66,8.66,0,0,0-.46-3.46,4.89,4.89,0,0,0-.34-.82l-.18-.4c-.07-.13-.15-.25-.23-.38l-.22-.39-.27-.36a7.47,7.47,0,0,0-.59-.72,24,24,0,0,0-3.4-2.91c-1.32-1-2.81-2-4.26-3.22a21.4,21.4,0,0,1-2.1-2A16.28,16.28,0,0,1,263.31,43a12.43,12.43,0,0,1-2-5.17,10.5,10.5,0,0,1,0-2.8,9.16,9.16,0,0,1,.82-2.8,12.47,12.47,0,0,1,3.94-4.73,13,13,0,0,1,3-1.62,13.8,13.8,0,0,1,3.39-.84,15.13,15.13,0,0,1,3.56,0,13.13,13.13,0,0,0-1.38.09,13.8,13.8,0,0,0-3.39.84,13,13,0,0,0-3,1.63,12.43,12.43,0,0,0-3.93,4.72,9.16,9.16,0,0,0-.82,2.8,10.5,10.5,0,0,0,0,2.8,12.38,12.38,0,0,0,2,5.17,16.28,16.28,0,0,0,1.76,2.25,21.4,21.4,0,0,0,2.1,2c1.45,1.21,2.94,2.23,4.26,3.22a24.61,24.61,0,0,1,3.4,2.91c.21.24.42.48.59.72l.27.36.22.39c.08.13.16.25.23.38l.18.4a4.89,4.89,0,0,1,.34.82A8.66,8.66,0,0,1,279.3,60a8.9,8.9,0,0,1-3.13,6.14A13.08,13.08,0,0,1,268.93,69a13.29,13.29,0,0,1-2.76-.07l.58,0A13.08,13.08,0,0,0,274,66.05Zm25-39.82h0a.49.49,0,0,1,.53-.16.3.3,0,0,1,.21.43,6.1,6.1,0,0,1-1.89,2l-.34.22-.59.16a11.47,11.47,0,0,1-2.67.32,13.1,13.1,0,0,1-1.66-.11,11,11,0,0,0,2.15-.3A7.05,7.05,0,0,0,299,26.23ZM202.79,70.62a3.1,3.1,0,0,1,.6,0,3.76,3.76,0,0,1,1.15.4,5,5,0,0,1,1.2.9,10.48,10.48,0,0,1,2.08,3c.52,1.12,1,2.65,1.66,4.21a18.21,18.21,0,0,0,2.91,5A13.2,13.2,0,0,0,219,88.28a15.62,15.62,0,0,0,2.53.46,17.54,17.54,0,0,1-4.71-.55,13.2,13.2,0,0,1-6.63-4.08,18.21,18.21,0,0,1-2.91-5c-.65-1.56-1.14-3.09-1.66-4.21a10.48,10.48,0,0,0-2.08-3,4.76,4.76,0,0,0-1.2-.9,3.82,3.82,0,0,0-.51-.23l.3-.07A3.72,3.72,0,0,1,202.79,70.62Zm-13.23.86a12.51,12.51,0,0,1,4.66-5.12A14.2,14.2,0,0,1,198,64.69a13.06,13.06,0,0,1,4.51-.44l.69.06a13.42,13.42,0,0,0-3,.48,13.87,13.87,0,0,0-3.76,1.66,12.51,12.51,0,0,0-4.66,5.12A14.4,14.4,0,0,0,190.35,77a24.13,24.13,0,0,0,1.47,10,26.16,26.16,0,0,0,5.44,8.68,1.93,1.93,0,0,0,.52.38,2.51,2.51,0,0,1-2.69-.47,26,26,0,0,1-5.45-8.68,24.13,24.13,0,0,1-1.47-10A14.4,14.4,0,0,1,189.56,71.48Zm32.54,9.29h0a6.84,6.84,0,0,0,1-.2A7.13,7.13,0,0,0,227,78a7.7,7.7,0,0,0,.9-1.39,10.55,10.55,0,0,0,1-3.33,13.59,13.59,0,0,0,0-3.66,10.5,10.5,0,0,0-.93-3.32c-1-2-2.3-3-5-4.16-1.33-.54-2.92-1-4.69-1.58-.89-.28-1.81-.56-2.78-.89s-2-.69-3-1.1a36.82,36.82,0,0,1-5.66-2.9,27.61,27.61,0,0,1-5-3.89,20.53,20.53,0,0,1-3.75-5,16.42,16.42,0,0,1-1.79-6,16.09,16.09,0,0,1,.66-6.3,17.1,17.1,0,0,1,3.56-6.14A21.26,21.26,0,0,1,207,23.74a30,30,0,0,1,7.41-2.45,40.5,40.5,0,0,1,10.67-.62,40,40,0,0,0-8.49.71,30,30,0,0,0-7.41,2.45,21.26,21.26,0,0,0-6.34,4.66,17.1,17.1,0,0,0-3.56,6.14,16.09,16.09,0,0,0-.66,6.3,16.42,16.42,0,0,0,1.79,6,20.53,20.53,0,0,0,3.75,5,28.42,28.42,0,0,0,5,3.9,37.78,37.78,0,0,0,5.67,2.89c1,.41,2,.78,3,1.11s1.89.6,2.78.88c1.77.54,3.36,1,4.69,1.58,2.69,1.11,4,2.15,5,4.16a10.65,10.65,0,0,1,.93,3.32,14,14,0,0,1-.05,3.66,10.55,10.55,0,0,1-1,3.33,8.17,8.17,0,0,1-2,2.51,7.82,7.82,0,0,1-2.87,1.43,6.18,6.18,0,0,1-2.85.17Zm8.2-48.44a35.23,35.23,0,0,0-4.55-.92c-.61-.08-1.23-.14-1.84-.19a32.21,32.21,0,0,1,4,.28,37.39,37.39,0,0,1,4.55.92,29.12,29.12,0,0,1,4.05,1.45,16.2,16.2,0,0,1,3.22,2A10.92,10.92,0,0,1,242,38.31a17.2,17.2,0,0,1,2.4,7.11c.4,2.7.46,5.74.7,9a31.84,31.84,0,0,0,2.17,10.22,21.24,21.24,0,0,0,3,5,19.37,19.37,0,0,0,2.17,2.29,20.37,20.37,0,0,0,2.73,2,19,19,0,0,0,3.26,1.6,18.5,18.5,0,0,0,1.82.61l.93.24c.31.08.63.13.94.19a22.24,22.24,0,0,0,2.28.3,23.93,23.93,0,0,1-4.46-.39c-.31-.06-.63-.11-.94-.19l-.93-.25a16.15,16.15,0,0,1-1.82-.6,19,19,0,0,1-3.26-1.6,19.64,19.64,0,0,1-2.72-2,18.68,18.68,0,0,1-2.18-2.29,21.79,21.79,0,0,1-3-5,31.89,31.89,0,0,1-2.17-10.22c-.24-3.23-.3-6.27-.7-9a17.2,17.2,0,0,0-2.4-7.1,10.92,10.92,0,0,0-2.26-2.49,16.2,16.2,0,0,0-3.22-1.95A29.12,29.12,0,0,0,230.3,32.33Z" class="cls-8" transform="translate(77.47)"/><polygon points="280.31 105.35 280.79 105.16 278.69 101.64 278.21 101.83 280.31 105.35" class="cls-9"/><path d="M202.26,107.25a.27.27,0,0,0,.27-.15l.71-1.58,1.93.49a.29.29,0,0,0,.34-.14.19.19,0,0,0-.16-.26l-2.42-.61-.89,2a.19.19,0,0,0,.16.26Z" class="cls-9" transform="translate(77.47)"/><path d="M202.79,95.71c-1.59-2.67-4.2-3-6.6-2s-3.65,2.92-2.06,5.6,5.43,5.06,7.82,4.07S204.38,98.38,202.79,95.71Z" class="cls-6" transform="translate(77.47)"/><path d="M202.23,97.74a.64.64,0,0,0-.77-.19.44.44,0,0,0-.28.63.64.64,0,0,0,.77.19A.46.46,0,0,0,202.23,97.74Z" class="cls-10" transform="translate(77.47)"/><path d="M196.41,100.15a.45.45,0,0,1,.28-.63.64.64,0,0,1,.77.19.45.45,0,0,1-.28.63A.64.64,0,0,1,196.41,100.15Z" class="cls-10" transform="translate(77.47)"/><path d="M23.53,170.6a21.5,21.5,0,0,1,4,16.31,10.63,10.63,0,0,1-1.28,3.68,6.29,6.29,0,0,1-2.46,2.35,5.35,5.35,0,0,1-1.46.52,2.94,2.94,0,0,1-.64.06,2.47,2.47,0,0,1-.6-.05,4,4,0,0,1-1.15-.39,4.82,4.82,0,0,1-1.2-.91,10.48,10.48,0,0,1-2.08-3c-.52-1.11-1-2.64-1.66-4.21a18.17,18.17,0,0,0-2.91-5,13.14,13.14,0,0,0-6.63-4.09,18.14,18.14,0,0,0-8.57-.08A19.91,19.91,0,0,0-10.41,179a18.82,18.82,0,0,0-2.77,2.5,16.85,16.85,0,0,0-2,2.73,18.53,18.53,0,0,0-2.2,5.68,20.93,20.93,0,0,0-.37,5.62,17.59,17.59,0,0,0,1.34,5.67,15.28,15.28,0,0,0,3.82,5.36,18.08,18.08,0,0,0,2.84,2.12,26.59,26.59,0,0,0,3,1.58c2,.9,3.93,1.55,5.68,2.15l2.47.87c.77.29,1.46.56,2.15.87a21.1,21.1,0,0,1,6.83,4.54,11.23,11.23,0,0,1,2,2.8,8,8,0,0,1,.78,3,7.84,7.84,0,0,1-.39,2.95,7,7,0,0,1-1.45,2.37,8.55,8.55,0,0,1-2.42,1.7,14,14,0,0,1-3.48,1.09,24,24,0,0,1-4.26.39,31.92,31.92,0,0,1-4.56-.29A35.23,35.23,0,0,1-8,231.72a27.88,27.88,0,0,1-4-1.45,16.18,16.18,0,0,1-3.22-1.94,11.19,11.19,0,0,1-2.26-2.5,17.15,17.15,0,0,1-2.4-7.1c-.4-2.7-.46-5.74-.7-9a31.89,31.89,0,0,0-2.17-10.22,21.52,21.52,0,0,0-3-5,19.5,19.5,0,0,0-2.18-2.3,18.82,18.82,0,0,0-2.72-2,19,19,0,0,0-3.26-1.61,16.15,16.15,0,0,0-1.82-.6l-.93-.25-.94-.19a25.13,25.13,0,0,0-7.64-.19,25.67,25.67,0,0,0-7.19,1.95,21.42,21.42,0,0,0-6,3.91,16.4,16.4,0,0,0-3.82,5.34,14.42,14.42,0,0,0-1.23,5.79,14.4,14.4,0,0,0,1.2,5.62,11.69,11.69,0,0,0,.67,1.32l.38.64c.14.21.3.42.44.62l.46.62.51.58a14,14,0,0,0,1.07,1.1,29.78,29.78,0,0,0,4.68,3.42c1.55,1,3,1.81,4.3,2.69.63.44,1.22.9,1.75,1.35a12.66,12.66,0,0,1,1.46,1.47,10.25,10.25,0,0,1,1.9,3.37,7.54,7.54,0,0,1,.31,1.81,6.16,6.16,0,0,1-.21,1.8,7.31,7.31,0,0,1-2.09,3.34,8,8,0,0,1-3.88,2,14.35,14.35,0,0,1-5,0c-3.5-.52-7-2-11.07-2.41a17.65,17.65,0,0,0-3.09,0,14.2,14.2,0,0,0-3,.6,10,10,0,0,0-2.72,1.3,6.1,6.1,0,0,0-1.89,2,.29.29,0,0,0,.21.43.47.47,0,0,0,.53-.16h0a7,7,0,0,1,4.25-2.58,12,12,0,0,1,2.67-.33,14.89,14.89,0,0,1,2.66.26c3.54.65,6.67,2.34,10.59,3.3a18.2,18.2,0,0,0,6.43.51,13.82,13.82,0,0,0,3.39-.85,13,13,0,0,0,3-1.62,12.44,12.44,0,0,0,3.94-4.72A9.22,9.22,0,0,0-39,229a10.5,10.5,0,0,0,0-2.8A12.34,12.34,0,0,0-41,221a16.36,16.36,0,0,0-1.76-2.26,22.69,22.69,0,0,0-2.1-2c-1.45-1.2-2.94-2.23-4.26-3.22a24.59,24.59,0,0,1-3.4-2.9,9,9,0,0,1-.59-.73l-.27-.36-.22-.38c-.08-.13-.16-.26-.23-.39l-.18-.4a5.16,5.16,0,0,1-.34-.81,8.68,8.68,0,0,1-.46-3.46A8.9,8.9,0,0,1-51.65,198a13.07,13.07,0,0,1,7.24-2.8,12.69,12.69,0,0,1,3.84.25c.14,0,.3.06.44.11l.41.13a6.18,6.18,0,0,1,.79.31c.26.09.51.25.77.37s.5.29.73.47a11.45,11.45,0,0,1,4.16,5.75,24.8,24.8,0,0,1,1.08,8c0,2.94-.14,6.11.14,9.54a25,25,0,0,0,3.14,10.6,20.12,20.12,0,0,0,4.18,4.93,28.36,28.36,0,0,0,5.64,3.65,37.24,37.24,0,0,0,6.26,2.36A48.67,48.67,0,0,0-6.31,243a42.25,42.25,0,0,0,14.2-.25,29.56,29.56,0,0,0,7.41-2.45,21.26,21.26,0,0,0,6.34-4.66,17,17,0,0,0,3.56-6.14,16.09,16.09,0,0,0,.66-6.3,16.42,16.42,0,0,0-1.79-6,20.53,20.53,0,0,0-3.75-5,27.61,27.61,0,0,0-5-3.89,37.73,37.73,0,0,0-5.66-2.9c-1-.41-2-.78-3-1.1s-1.89-.61-2.78-.88c-1.77-.55-3.36-1-4.69-1.58-2.69-1.11-4-2.15-5-4.17a10.51,10.51,0,0,1-.93-3.31,13.66,13.66,0,0,1,0-3.67,10.63,10.63,0,0,1,1-3.33,7.7,7.7,0,0,1,.9-1.39,7.76,7.76,0,0,1,1.09-1.12,8,8,0,0,1,2.87-1.43,6.32,6.32,0,0,1,2.85-.17,2.47,2.47,0,0,0,.29.06,1.14,1.14,0,0,0,.26.09,4.35,4.35,0,0,1,.58.27,5.33,5.33,0,0,1,1.14.86,12.4,12.4,0,0,1,2.1,3.15c.68,1.29,1.22,2.7,2.16,4.4a17.32,17.32,0,0,0,3.83,4.67,12.77,12.77,0,0,0,3.14,2,12.63,12.63,0,0,0,4.22,1,13.3,13.3,0,0,0,4.51-.45,13.59,13.59,0,0,0,3.76-1.67,12.49,12.49,0,0,0,4.66-5.11,14.49,14.49,0,0,0,1.39-5.44,24.06,24.06,0,0,0-1.47-9.94,26,26,0,0,0-5.45-8.69,2.57,2.57,0,0,0-3.1-.27,1.6,1.6,0,0,0-.63,2.35Z" class="cls-6" transform="translate(77.47)"/><path d="M-50.19,239a18.32,18.32,0,0,1-6.32-.52c-.31-.07-.61-.16-.92-.25a16.32,16.32,0,0,1,2.31-.6C-53.21,237.27-50,237.66-50.19,239Zm21.24-35.07a3.5,3.5,0,0,1,.9,3.32,3.93,3.93,0,0,1-1.53,3,4.94,4.94,0,0,1-2.61.64v-.32a26.6,26.6,0,0,0-.92-7.49c.4,0,.81,0,1.2,0A5.24,5.24,0,0,1-28.95,203.92ZM-43.4,222.3a6.5,6.5,0,0,0,.13-2.1,5.06,5.06,0,0,0-1.35-1.83,2.09,2.09,0,0,1-.72-2l.51.41a22.69,22.69,0,0,1,2.1,2A16.36,16.36,0,0,1-41,221a12.34,12.34,0,0,1,2,5.16c0,.16,0,.32,0,.49a6.44,6.44,0,0,1-2.92-1.14A3.77,3.77,0,0,1-43.4,222.3Zm-3.31,11.81a7.31,7.31,0,0,0,2.09-3.34l.06-.27a2.62,2.62,0,0,1,1.74,1.86A2.84,2.84,0,0,1-44.61,235a8.4,8.4,0,0,1-3.76.77l-1,0A8.13,8.13,0,0,0-46.71,234.11Zm-2-41.92c-1.19.19-2.48-.17-3.56.3-2,.88-1.26,3.58-3,4.76-1.08.72-2.69.57-3.9,1.16A3.31,3.31,0,0,0-61,201.17a27.94,27.94,0,0,0,.21,3.16,3.94,3.94,0,0,1-2.33,3.49,13.93,13.93,0,0,1-.46-3.46,14.42,14.42,0,0,1,1.23-5.79,16.4,16.4,0,0,1,3.82-5.34,21.42,21.42,0,0,1,6-3.91,25.66,25.66,0,0,1,6.17-1.8,3,3,0,0,1,.46,1.24A3.31,3.31,0,0,1-48.69,192.19Zm-1.8,28.35c-1.11-.73-2.34-1.46-3.64-2.26a29.78,29.78,0,0,1-4.68-3.42l-.42-.4a4,4,0,0,1,1.86-1.13,3.19,3.19,0,0,1,3.38.95c.47.74.35,1.74,1.1,2.3s2.28.38,3.12,1a1.42,1.42,0,0,1,.43,1.74A3,3,0,0,1-50.49,220.54ZM-54.8,205a4.34,4.34,0,0,1-1.09-1.16,2.18,2.18,0,0,1-.11-2.41,4.14,4.14,0,0,1,2.24-1.32c.11,0,.23-.06.34-.09a8.84,8.84,0,0,0-1.36,4.11A8.42,8.42,0,0,0-54.8,205Zm73.32,29.25c.74-1.35-.21-3.11,1-4.23a3.51,3.51,0,0,1,3.55-.32,5.92,5.92,0,0,1,1.64,1.11,17,17,0,0,1-3.07,4.82,21.26,21.26,0,0,1-6.34,4.66l-.06,0,0-.06a3.29,3.29,0,0,1,.85-3.79C16.85,235.72,18,235.17,18.52,234.27ZM7.47,236a4.91,4.91,0,0,1-3.31-1.17,2,2,0,0,1-.27-2.08c.52-.06,1-.13,1.52-.23a14,14,0,0,0,3.48-1.09,8.65,8.65,0,0,0,1.73-1.09,6.26,6.26,0,0,1,1.48,1.5,2.52,2.52,0,0,1-.54,3.33A6.07,6.07,0,0,1,7.47,236Zm5.68-11.59a8,8,0,0,0-.78-3,11.23,11.23,0,0,0-2-2.8A17.82,17.82,0,0,0,7.06,216a4,4,0,0,1,.29-.3,5.49,5.49,0,0,1,4.84-1.2,2.58,2.58,0,0,1,1.61,1c.57.89,0,2,.29,3,.5,1.47,2.93,2,3.43,3.52.35,1-.41,2.17-1.53,2.8a7.07,7.07,0,0,1-2.86.77A8.62,8.62,0,0,0,13.15,224.43Zm10.54-1.32c-2.39-.43-4.33-2.18-4.27-4.16a5.32,5.32,0,0,1,2.17-3.67c.24-.2.52-.42.82-.64a18.6,18.6,0,0,1,1.66,2.61,16.43,16.43,0,0,1,1.79,5.95A7.87,7.87,0,0,1,23.69,223.11ZM-33.57,195.4a2.75,2.75,0,0,1,.64,4,5,5,0,0,1-1.22,1.15,10.53,10.53,0,0,0-3.28-3.76c-.23-.18-.49-.31-.73-.47s-.51-.28-.77-.37a6.18,6.18,0,0,0-.79-.31l-.41-.13c-.14-.05-.3-.07-.44-.11a12.69,12.69,0,0,0-3.84-.25l-.48.05v0a4.23,4.23,0,0,1,1.21-1.79,3.41,3.41,0,0,1,2.27-.8c1.36.07,2.28,1.05,3.47,1.54C-36.56,194.73-34.8,194.65-33.57,195.4ZM-8,231.72a35.23,35.23,0,0,0,4.55.92c.8.11,1.61.19,2.42.23a3.67,3.67,0,0,1,.11.74,3.36,3.36,0,0,1-2.07,3.07,5.71,5.71,0,0,1-3.63.17,13.66,13.66,0,0,1-3.19-1.4,8.14,8.14,0,0,1-3.35-2.67,6.11,6.11,0,0,1-.35-3.27,15.43,15.43,0,0,0,1.46.76A27.88,27.88,0,0,0-8,231.72Zm9.37-18.45-2.47-.87c-1.71-.59-3.59-1.23-5.56-2.1.07-.28.14-.56.22-.84a3.16,3.16,0,0,1,1.2-1.86,5.37,5.37,0,0,1,2.84-.55,7.29,7.29,0,0,1,3.68.58A3,3,0,0,1,2.74,210a4.33,4.33,0,0,1-1.29,3.25Zm-3.32,27.95c2.06,0,4.14-.45,6.18-.26a4.87,4.87,0,0,1,3.58,1.81A42.27,42.27,0,0,1-6.31,243c-1.28-.18-2.51-.41-3.73-.68A7.76,7.76,0,0,1-6.73,241,41,41,0,0,1-1.91,241.22Zm-16.87-6.91a3.69,3.69,0,0,1,1.12,2.09,11.16,11.16,0,0,1,.27,3.1,3.27,3.27,0,0,1-.05.53q-.84-.36-1.65-.75a28.36,28.36,0,0,1-5.64-3.65c-.22-.2-.44-.39-.66-.6a11.17,11.17,0,0,1,1.5-.87C-22.27,233.38-20,233.27-18.78,234.31Zm-5.76-23.47c-.86-1-.39-2.48.67-3.43A9,9,0,0,1-21,205.72c.22,1.38.36,2.72.46,4,.06.78.11,1.54.15,2.29-.27,0-.54,0-.8,0A4.84,4.84,0,0,1-24.54,210.84Zm50.83-20.25a8.28,8.28,0,0,0,.61-1.27.94.94,0,0,0,.1.1,2.7,2.7,0,0,1,.42,3.34c-.82,1.26-2.68,1.9-4.41,2a4.68,4.68,0,0,1-3.66-1.09,2.61,2.61,0,0,1-.57-1.49,4.82,4.82,0,0,0,1.2.91,4,4,0,0,0,1.15.39,2.47,2.47,0,0,0,.6.05,2.94,2.94,0,0,0,.64-.06,5.35,5.35,0,0,0,1.46-.52A6.29,6.29,0,0,0,26.29,190.59Zm1.87-18.51a1.67,1.67,0,0,1,.9-1.44A27.18,27.18,0,0,1,31.25,174C30,173.68,28.26,173.09,28.16,172.08ZM12.42,196.75a17.31,17.31,0,0,1-3.76-4.61c-.83-1.51-1.36-2.8-1.94-4a3,3,0,0,1,2.45-.29,2.81,2.81,0,0,1,1.54,1.58,7.32,7.32,0,0,0,1,1.9c.71.82,2,1.3,2.45,2.21C14.77,194.71,13.86,196.19,12.42,196.75Zm2.38,14.68c-1.66-.21-3.28-1-3.77-2.3a5.61,5.61,0,0,0-.59-1.65A3.5,3.5,0,0,0,8,206.56a10.24,10.24,0,0,1-2.8-.37,2.46,2.46,0,0,1-1.63-2.83l.39.12c.89.27,1.81.56,2.78.88s2,.69,3,1.1a37.73,37.73,0,0,1,5.66,2.9,29,29,0,0,1,3.94,2.93A13.64,13.64,0,0,1,14.8,211.43Zm12.94-30.12a21.44,21.44,0,0,0-1.42-5.67,4,4,0,0,1,2.15.13,3.33,3.33,0,0,1,2.13,2.28,2.31,2.31,0,0,1-.23,1.81A3.82,3.82,0,0,1,27.74,181.31Zm6,8.62a3.83,3.83,0,0,1-1.55-.92,3.17,3.17,0,0,1-1-3A3.37,3.37,0,0,1,33,183.71a3.5,3.5,0,0,1,1.16-.37,24.08,24.08,0,0,1,.06,3.8A16.43,16.43,0,0,1,33.74,189.93Zm-5.62,7.76a13.59,13.59,0,0,1-3.76,1.67,14.09,14.09,0,0,1-2.88.47,1.94,1.94,0,0,1,.86-1.32,6.33,6.33,0,0,1,2.52-.72,4.31,4.31,0,0,0,2.32-1.45,3.6,3.6,0,0,1,3.34-.58A12.45,12.45,0,0,1,28.12,197.69Zm-58-2.82c-1.28-1-1.24-2.8-2.68-3.64-1.15-.66-2.8-.43-4.14-.83a4.31,4.31,0,0,1-2.66-2.29c-.13-.28-.26-.56-.37-.84.72.07,1.44.16,2.15.29l.94.19.93.25a16.15,16.15,0,0,1,1.82.6,19,19,0,0,1,3.26,1.61,18.82,18.82,0,0,1,2.72,2,19.5,19.5,0,0,1,2.18,2.3c.1.11.18.23.27.34A4.34,4.34,0,0,1-29.92,194.87Zm12.43,31c.22.33.46.64.7.94a4.45,4.45,0,0,1-.51.33,3.41,3.41,0,0,1-3.31,0,2.55,2.55,0,0,1-.85-2.42,6.2,6.2,0,0,0,0-2.61c-.42-1.2-1.86-2.08-2-3.34-.12-1.64,1.51-2.65,3.23-2.82.08,1,.17,1.92.31,2.83A17.15,17.15,0,0,0-17.49,225.83Zm-11.93,1.82a4.39,4.39,0,0,1-1,0A27.74,27.74,0,0,1-32,220.1c-.1-1.28-.15-2.53-.16-3.74a3.11,3.11,0,0,1,2.16-.14,2.51,2.51,0,0,1,1.53,2.61,8,8,0,0,0,.08,3.08c.48,1.21,1.93,2.12,1.92,3.4S-27.94,227.53-29.42,227.65Zm14.68-30a6,6,0,0,1,2.74,3,1.78,1.78,0,0,1-.43,2.2,3.23,3.23,0,0,1-1.81.41c-.36,0-.75,0-1.15,0a17.61,17.61,0,0,1-1-2,17.25,17.25,0,0,1-1.1-3.74A2.72,2.72,0,0,1-14.74,197.61Zm-.65-13.05a3.72,3.72,0,0,0,.19-.34,16.85,16.85,0,0,1,2-2.73,18.82,18.82,0,0,1,2.77-2.5l.49-.33a3.44,3.44,0,0,1,.36.28,2.59,2.59,0,0,1,.34,3.57A7.52,7.52,0,0,1-15.39,184.56Zm18.16-4.85A7.36,7.36,0,0,1-2.52,177a6.44,6.44,0,0,1-.72-1.21l.17,0a18.14,18.14,0,0,1,8.57.08A13.6,13.6,0,0,1,9,177.36c-.1.12-.19.24-.3.35A8,8,0,0,1,2.77,179.71Zm9.66,4.95a3,3,0,0,1-.14-4.51A18.6,18.6,0,0,1,15,184.93c.08.21.17.41.25.61A4.82,4.82,0,0,1,12.43,184.66Zm-19,6.09a13.66,13.66,0,0,0,0,3.67,9.88,9.88,0,0,0,.27,1.44,7.27,7.27,0,0,1-3.6-.78,3.2,3.2,0,0,1-1.61-4.22c.47-.86,1.38-1.55,1.78-2.43s.29-1.94,1.14-2.58,2.65-.39,3.58.34l.19.17a7.56,7.56,0,0,0-.66,1.06A10.63,10.63,0,0,0-6.62,190.75Z" class="cls-7" transform="translate(77.47)"/><path d="M-54.59,236.2a16.68,16.68,0,0,1-3.2-.22c-3.5-.52-7-2-11.07-2.41h0a19.74,19.74,0,0,1,2.19.09c4.06.42,7.57,1.89,11.07,2.41C-55.27,236.13-54.93,236.17-54.59,236.2Zm2.94-38.2a8.9,8.9,0,0,0-3.13,6.15,8.68,8.68,0,0,0,.46,3.46,5.16,5.16,0,0,0,.34.81l.18.4c.07.13.15.26.23.39l.22.38.27.36a9,9,0,0,0,.59.73,24.59,24.59,0,0,0,3.4,2.9c1.32,1,2.81,2,4.26,3.22a22.69,22.69,0,0,1,2.1,2A16.36,16.36,0,0,1-41,221a12.34,12.34,0,0,1,2,5.16,10.5,10.5,0,0,1,0,2.8,9.22,9.22,0,0,1-.82,2.81,12.44,12.44,0,0,1-3.94,4.72,13,13,0,0,1-3,1.62,13.82,13.82,0,0,1-3.39.85,16.29,16.29,0,0,1-3.56,0q.68,0,1.38-.09a13.82,13.82,0,0,0,3.39-.85,13.33,13.33,0,0,0,3-1.62A12.58,12.58,0,0,0-42,231.7a9.22,9.22,0,0,0,.82-2.81,10.5,10.5,0,0,0,0-2.8,12.43,12.43,0,0,0-2-5.17,16.89,16.89,0,0,0-1.76-2.25,22.69,22.69,0,0,0-2.1-2c-1.45-1.2-2.94-2.23-4.26-3.22a24.59,24.59,0,0,1-3.4-2.9c-.21-.25-.42-.49-.59-.73l-.27-.36-.22-.38c-.08-.13-.16-.26-.23-.39l-.18-.4a4.89,4.89,0,0,1-.34-.82,8.64,8.64,0,0,1-.46-3.46,8.9,8.9,0,0,1,3.13-6.14,13.07,13.07,0,0,1,7.24-2.8,13.3,13.3,0,0,1,2.76.06l-.58,0A13.07,13.07,0,0,0-51.65,198Zm-25,39.82h0a.47.47,0,0,1-.53.16.29.29,0,0,1-.21-.43,6.1,6.1,0,0,1,1.89-2l.34-.22.59-.16a12.65,12.65,0,0,1,2.67-.32,13.1,13.1,0,0,1,1.66.11,11.86,11.86,0,0,0-2.15.31A7,7,0,0,0-76.68,237.82Zm96.23-44.39a2.47,2.47,0,0,1-.6-.05A4,4,0,0,1,17.8,193a4.82,4.82,0,0,1-1.2-.91,10.48,10.48,0,0,1-2.08-3c-.52-1.11-1-2.65-1.66-4.21a18.17,18.17,0,0,0-2.91-5,13.14,13.14,0,0,0-6.63-4.09,15.6,15.6,0,0,0-2.53-.45,17.13,17.13,0,0,1,4.71.54A13.14,13.14,0,0,1,12.13,180a18.17,18.17,0,0,1,2.91,5c.65,1.57,1.14,3.1,1.66,4.21a10.48,10.48,0,0,0,2.08,3,4.82,4.82,0,0,0,1.2.91,3.74,3.74,0,0,0,.51.22l-.3.07A2.94,2.94,0,0,1,19.55,193.43Zm13.23-.85a12.49,12.49,0,0,1-4.66,5.11,13.59,13.59,0,0,1-3.76,1.67,13.3,13.3,0,0,1-4.51.45l-.69-.07a13.42,13.42,0,0,0,3-.47,13.89,13.89,0,0,0,3.76-1.67,12.49,12.49,0,0,0,4.66-5.11A14.49,14.49,0,0,0,32,187.05a24.06,24.06,0,0,0-1.47-9.94,26.1,26.1,0,0,0-5.44-8.69,1.93,1.93,0,0,0-.52-.38,2.51,2.51,0,0,1,2.69.47,26,26,0,0,1,5.45,8.69,24.06,24.06,0,0,1,1.47,9.94A14.49,14.49,0,0,1,32.78,192.58ZM.24,183.28h0a8.64,8.64,0,0,0-1,.2,8,8,0,0,0-2.87,1.43A7.76,7.76,0,0,0-4.68,186a7.7,7.7,0,0,0-.9,1.39,10.63,10.63,0,0,0-1,3.33,13.66,13.66,0,0,0,0,3.67,10.51,10.51,0,0,0,.93,3.31c1,2,2.3,3.06,5,4.17,1.33.54,2.92,1,4.69,1.58.89.27,1.81.56,2.78.88s2,.69,3,1.1a37.73,37.73,0,0,1,5.66,2.9,27.61,27.61,0,0,1,5,3.89,20.53,20.53,0,0,1,3.75,5,16.42,16.42,0,0,1,1.79,6,16.09,16.09,0,0,1-.66,6.3,17,17,0,0,1-3.56,6.14,21.26,21.26,0,0,1-6.34,4.66,29.56,29.56,0,0,1-7.41,2.45,40.5,40.5,0,0,1-10.67.62,39.37,39.37,0,0,0,8.49-.71,30,30,0,0,0,7.41-2.45,21.26,21.26,0,0,0,6.34-4.66A17,17,0,0,0,23,229.42a16.09,16.09,0,0,0,.66-6.3,16.42,16.42,0,0,0-1.79-6,20.53,20.53,0,0,0-3.75-5,27.9,27.9,0,0,0-5-3.89,37.84,37.84,0,0,0-5.67-2.9c-1-.41-2-.78-3-1.1s-1.89-.61-2.78-.88c-1.77-.55-3.36-1-4.69-1.58-2.69-1.11-4-2.15-5-4.17a10.51,10.51,0,0,1-.93-3.31,14.09,14.09,0,0,1,0-3.67,10.63,10.63,0,0,1,1-3.33,7.7,7.7,0,0,1,.9-1.39,7.76,7.76,0,0,1,1.09-1.12,8,8,0,0,1,2.87-1.43A6.32,6.32,0,0,1,0,183.22,2.47,2.47,0,0,0,.24,183.28ZM-8,231.72a35.23,35.23,0,0,0,4.55.92c.61.08,1.23.14,1.84.19a32.21,32.21,0,0,1-4-.28,35.58,35.58,0,0,1-4.55-.92,27.88,27.88,0,0,1-4-1.45,16.2,16.2,0,0,1-3.22-2,10.92,10.92,0,0,1-2.26-2.49,17.15,17.15,0,0,1-2.4-7.1c-.4-2.71-.46-5.75-.7-9a31.89,31.89,0,0,0-2.17-10.22,21.18,21.18,0,0,0-3-5,18.7,18.7,0,0,0-2.17-2.3,19.49,19.49,0,0,0-2.73-2,18.32,18.32,0,0,0-3.26-1.61,16.15,16.15,0,0,0-1.82-.6l-.93-.25c-.31-.08-.63-.13-.94-.19-.76-.14-1.52-.23-2.28-.3a24.81,24.81,0,0,1,4.46.39l.94.19.93.25a16.15,16.15,0,0,1,1.82.6,19,19,0,0,1,3.26,1.61,18.82,18.82,0,0,1,2.72,2,19.5,19.5,0,0,1,2.18,2.3,21.52,21.52,0,0,1,3,5,31.89,31.89,0,0,1,2.17,10.22c.24,3.24.3,6.28.7,9a17.15,17.15,0,0,0,2.4,7.1,11.19,11.19,0,0,0,2.26,2.5A16.18,16.18,0,0,0-12,230.27,27.88,27.88,0,0,0-8,231.72Z" class="cls-8" transform="translate(77.47)"/><polygon points="96.97 158.7 96.5 158.9 98.59 162.42 99.07 162.22 96.97 158.7" class="cls-9"/><path d="M20.08,156.8a.3.3,0,0,0-.27.15l-.71,1.58L17.17,158a.31.31,0,0,0-.34.14.19.19,0,0,0,.16.26l2.42.61.89-2a.19.19,0,0,0-.16-.26Z" class="cls-9" transform="translate(77.47)"/><path d="M19.55,168.34c1.59,2.67,4.2,3,6.6,2s3.65-2.92,2.06-5.59-5.43-5.07-7.82-4.08S18,165.67,19.55,168.34Z" class="cls-6" transform="translate(77.47)"/><path d="M20.11,166.31a.63.63,0,0,0,.77.19.44.44,0,0,0,.28-.62.62.62,0,0,0-.77-.19A.45.45,0,0,0,20.11,166.31Z" class="cls-10" transform="translate(77.47)"/><path d="M25.93,163.91a.44.44,0,0,1-.28.62.63.63,0,0,1-.77-.19.45.45,0,0,1,.28-.63A.63.63,0,0,1,25.93,163.91Z" class="cls-10" transform="translate(77.47)"/></g></g></g></g></svg>