<svg xmlns="http://www.w3.org/2000/svg" viewBox="0 0 262 119"><defs><style>.cls-1{fill:#5936d9;}.cls-2{fill:#f9f9f9;}.cls-3,.cls-4,.cls-5{fill:none;stroke-miterlimit:10;}.cls-3{stroke:#fcfcfc;}.cls-3,.cls-4{stroke-width:3px;}.cls-4,.cls-5{stroke:#f9f9f9;}.cls-5{stroke-width:2px;}</style></defs><g id="Layer_2" data-name="Layer 2"><g id="Layer_1-2" data-name="Layer 1"><rect class="cls-1" width="262" height="119"/><path class="cls-2" d="M35.23,50.39v2.5A5.94,5.94,0,0,1,40.8,50,6.57,6.57,0,0,1,47,53.39,7,7,0,0,1,53.28,50c4.29,0,7,2.78,7,7.61v11H55.67V58.11c0-2.61-1.5-4-3.64-4-2.86,0-4.15,2.61-4.15,5.11v9.4H43.23V58.11c0-2.61-1.53-4-3.68-4-2.89,0-4.15,2.61-4.15,5.11v9.4H30.76V50.39Z"/><path class="cls-2" d="M63.64,64.93l3.14-2.32a5.09,5.09,0,0,0,4.36,2.68c1.72,0,2.76-.61,2.76-1.57,0-1.15-1-1.61-3.94-2.61-3.71-1.25-5.71-2.72-5.71-5.72s3.07-5.43,7-5.43a7.36,7.36,0,0,1,6.65,3.61l-3.11,2.25a4,4,0,0,0-3.61-2.15c-1.47,0-2.57.68-2.57,1.68s1,1.47,3.79,2.47c3.46,1.25,5.86,2.47,5.86,5.79,0,3.07-2.9,5.43-7.12,5.43A8.27,8.27,0,0,1,63.64,64.93Z"/><g id="Hex"><path class="cls-3" d="M87.27,40.89A7.15,7.15,0,0,0,84.51,38L58.1,22.78a7.18,7.18,0,0,0-3.59-1"/><path class="cls-4" d="M87.14,78.34a7.18,7.18,0,0,0,1-3.59V44.25a7.18,7.18,0,0,0-.84-3.36"/><path class="cls-3" d="M54.51,97.18a7.18,7.18,0,0,0,3.59-1L84.51,81a7.06,7.06,0,0,0,2.63-2.63"/><path class="cls-3" d="M21.87,78.34A7.14,7.14,0,0,0,24.5,81L50.92,96.22a7.18,7.18,0,0,0,3.59,1"/><path class="cls-4" d="M21.71,41a7.11,7.11,0,0,0-.8,3.29v30.5a7.17,7.17,0,0,0,1,3.59"/><path class="cls-3" d="M54.51,21.82a7.18,7.18,0,0,0-3.59,1L24.5,38A7.15,7.15,0,0,0,21.71,41"/></g><path class="cls-2" d="M111.09,35.09v2a5,5,0,0,1,4.58-2.31,5.44,5.44,0,0,1,5,2.71,5.83,5.83,0,0,1,5.19-2.71c3.52,0,5.78,2.2,5.78,6v8.72h-3.81v-8.3a2.84,2.84,0,0,0-3-3.16c-2.35,0-3.41,2.06-3.41,4v7.42h-3.81v-8.3a2.86,2.86,0,0,0-3-3.16c-2.37,0-3.4,2.06-3.4,4v7.42h-3.81V35.09Z"/><path class="cls-2" d="M149.33,41.41a7.91,7.91,0,0,1-.23,1.77H138.6c.23,2.26,2.2,3.45,4.4,3.45A5.45,5.45,0,0,0,146.93,45L149,47.44a8.5,8.5,0,0,1-6.22,2.37c-4.92,0-8.18-3.3-8.18-7.5a7.45,7.45,0,0,1,7.66-7.56C146.55,34.75,149.33,37.6,149.33,41.41ZM138.6,40.7h7v0a3.12,3.12,0,0,0-3.34-2.85A3.49,3.49,0,0,0,138.6,40.7Z"/><path class="cls-2" d="M156.16,35.09v2a5,5,0,0,1,4.61-2.31c3.52,0,5.81,2.2,5.81,6v8.72h-3.82v-8.3a2.86,2.86,0,0,0-3-3.16c-2.37,0-3.43,2.06-3.43,4v7.42H152.5V35.09Z"/><path class="cls-2" d="M171.09,35.09V31.16h3.7v3.93h3.54V38h-3.54v6.41a1.84,1.84,0,0,0,2.08,2.08,3.43,3.43,0,0,0,1.85-.48v3.22a6.29,6.29,0,0,1-2.85.56c-3.05,0-4.9-1.72-4.9-4.85V38h-2.11V35.09Z"/><path class="cls-2" d="M195.87,42.28c0,4.23-3.31,7.53-7.92,7.53a7.54,7.54,0,1,1,0-15.06C192.56,34.75,195.87,38.05,195.87,42.28Zm-12,0a4,4,0,1,0,4-4.2A4,4,0,0,0,183.91,42.28Z"/><path class="cls-2" d="M202.82,37.6a4.41,4.41,0,0,1,4.25-2.85,2.86,2.86,0,0,1,.91.11v3.53a2.06,2.06,0,0,0-.82-.12c-2.67,0-4.28,1.92-4.28,4.89v6.32h-3.81V35.09h3.75Z"/><path class="cls-2" d="M223.61,41.41a8.53,8.53,0,0,1-.23,1.77h-10.5c.23,2.26,2.2,3.45,4.4,3.45A5.45,5.45,0,0,0,221.21,45l2.11,2.42a8.52,8.52,0,0,1-6.22,2.37c-4.93,0-8.18-3.3-8.18-7.5a7.45,7.45,0,0,1,7.65-7.56C220.83,34.75,223.61,37.6,223.61,41.41Zm-10.73-.71h7v0a3.13,3.13,0,0,0-3.35-2.85A3.49,3.49,0,0,0,212.88,40.7Z"/><path class="cls-2" d="M237.51,47.42a5.91,5.91,0,0,1-4.84,2.39c-3.87,0-7-3.1-7-7.53s3-7.53,7.07-7.53a5.6,5.6,0,0,1,4.55,2.17V29.44h3.81v20h-3.58Zm-.09-5.17a3.94,3.94,0,0,0-4-4.23,4,4,0,0,0-4,4.23,4.05,4.05,0,0,0,4,4.29A4,4,0,0,0,237.42,42.25Z"/><path class="cls-2" d="M141.07,77.57l2.58-1.83a4.19,4.19,0,0,0,3.58,2.11c1.41,0,2.26-.48,2.26-1.24s-.79-1.27-3.23-2.06c-3-1-4.69-2.14-4.69-4.51s2.52-4.29,5.75-4.29a6.08,6.08,0,0,1,5.45,2.85l-2.55,1.77a3.33,3.33,0,0,0-3-1.69c-1.2,0-2.11.54-2.11,1.33s.79,1.15,3.11,1.95c2.84,1,4.81,1.94,4.81,4.57,0,2.42-2.38,4.28-5.84,4.28A6.87,6.87,0,0,1,141.07,77.57Z"/><path class="cls-2" d="M159.84,68.12a5.91,5.91,0,0,1,4.81-2.37c3.87,0,7,3.1,7,7.53s-3,7.53-7.07,7.53a5.61,5.61,0,0,1-4.55-2.06v7.37h-3.81v-20h3.58Zm.09,5.19a3.94,3.94,0,0,0,4,4.23,4.27,4.27,0,1,0-4-4.23Z"/><path class="cls-2" d="M178.67,68.6a4.4,4.4,0,0,1,4.25-2.85,2.9,2.9,0,0,1,.91.11v3.53a2.09,2.09,0,0,0-.82-.12c-2.67,0-4.29,1.92-4.29,4.89v6.32h-3.81V66.09h3.76Z"/><path class="cls-2" d="M190.51,61.91a2.11,2.11,0,0,1-2.2,2.09,2.09,2.09,0,0,1-2.2-2.09,2.06,2.06,0,0,1,2.2-2.06A2.09,2.09,0,0,1,190.51,61.91Zm-4.07,4.18h3.81V80.48h-3.81Z"/><path class="cls-2" d="M198.26,66.09v2a5,5,0,0,1,4.6-2.31c3.52,0,5.81,2.2,5.81,6v8.72h-3.82v-8.3a2.86,2.86,0,0,0-3-3.16c-2.37,0-3.43,2.06-3.43,4v7.42h-3.81V66.09Z"/><path class="cls-2" d="M213.18,66.09V62.16h3.7v3.93h3.54V69h-3.54v6.41A1.84,1.84,0,0,0,219,77.51a3.43,3.43,0,0,0,1.85-.48v3.22a6.29,6.29,0,0,1-2.85.56c-3.05,0-4.9-1.72-4.9-4.85V69H211V66.09Z"/><path class="cls-2" d="M222.1,77.57l2.58-1.83a4.18,4.18,0,0,0,3.57,2.11c1.41,0,2.26-.48,2.26-1.24s-.79-1.27-3.22-2.06c-3-1-4.7-2.14-4.7-4.51s2.53-4.29,5.75-4.29a6.11,6.11,0,0,1,5.46,2.85l-2.55,1.77a3.36,3.36,0,0,0-3-1.69c-1.2,0-2.11.54-2.11,1.33s.79,1.15,3.11,1.95c2.85,1,4.81,1.94,4.81,4.57,0,2.42-2.38,4.28-5.84,4.28A6.86,6.86,0,0,1,222.1,77.57Z"/><line class="cls-5" x1="137.28" y1="79.95" x2="107.43" y2="79.95"/></g></g></svg>