<svg xmlns="http://www.w3.org/2000/svg" xmlns:xlink="http://www.w3.org/1999/xlink" viewBox="0 0 221.68 78.37"><defs><style>.cls-1,.cls-7{fill:none;}.cls-2{fill:#d089ff;}.cls-3,.cls-4,.cls-5,.cls-6{fill:url(#Unnamed_Pattern_3);}.cls-4{stroke:#4951fa;}.cls-4,.cls-5,.cls-6,.cls-7{stroke-miterlimit:10;}.cls-4,.cls-5,.cls-6{stroke-width:3px;}.cls-5,.cls-7{stroke:#d089ff;}.cls-6{stroke:#dcc7ff;}.cls-7{stroke-width:2px;}</style><pattern id="Unnamed_Pattern_3" data-name="Unnamed Pattern 3" width="581.4" height="292.27" patternTransform="translate(260.12 -5.36) scale(0.7)" patternUnits="userSpaceOnUse" viewBox="0 0 581.4 292.27"><rect class="cls-1" width="581.4" height="292.27"/><rect class="cls-2" width="581.4" height="292.27"/></pattern></defs><g id="Layer_2" data-name="Layer 2"><g id="Layer_1-2" data-name="Layer 1"><path class="cls-3" d="M15.82,30.07v2.5a6,6,0,0,1,5.57-2.93,6.57,6.57,0,0,1,6.15,3.43,7.06,7.06,0,0,1,6.33-3.43c4.29,0,7,2.79,7,7.61v11H36.26V37.79c0-2.61-1.5-4-3.64-4-2.86,0-4.15,2.61-4.15,5.11v9.4H23.82V37.79c0-2.61-1.53-4-3.68-4C17.25,33.79,16,36.4,16,38.9v9.4H11.35V30.07Z"/><path class="cls-3" d="M44.23,44.62l3.14-2.33A5.08,5.08,0,0,0,51.73,45c1.72,0,2.76-.61,2.76-1.58,0-1.14-1-1.61-3.93-2.61-3.72-1.25-5.72-2.71-5.72-5.72s3.07-5.43,7-5.43a7.36,7.36,0,0,1,6.65,3.61L55.38,35.5a4,4,0,0,0-3.61-2.14c-1.46,0-2.57.68-2.57,1.68s1,1.46,3.79,2.46c3.46,1.26,5.86,2.47,5.86,5.79,0,3.08-2.9,5.44-7.12,5.44A8.29,8.29,0,0,1,44.23,44.62Z"/><g id="Hex"><path class="cls-4" d="M67.86,20.58a7.16,7.16,0,0,0-2.75-2.87L38.69,2.46a7.18,7.18,0,0,0-3.59-1"/><path class="cls-5" d="M67.73,58a7.21,7.21,0,0,0,1-3.59V23.93a7.11,7.11,0,0,0-.84-3.35"/><path class="cls-6" d="M35.1,76.87a7.18,7.18,0,0,0,3.59-1L65.11,60.66A7.26,7.26,0,0,0,67.73,58"/><path class="cls-4" d="M2.46,58a7.29,7.29,0,0,0,2.63,2.63L31.51,75.91a7.18,7.18,0,0,0,3.59,1"/><path class="cls-5" d="M2.3,20.64a7.14,7.14,0,0,0-.8,3.29V54.44a7.2,7.2,0,0,0,1,3.59"/><path class="cls-6" d="M35.1,1.5a7.18,7.18,0,0,0-3.59,1L5.09,17.71A7.21,7.21,0,0,0,2.3,20.64"/></g><path class="cls-3" d="M91.68,14.77v2a5,5,0,0,1,4.58-2.32,5.44,5.44,0,0,1,5,2.71,5.85,5.85,0,0,1,5.19-2.71c3.52,0,5.78,2.2,5.78,6v8.72h-3.81V20.87a2.84,2.84,0,0,0-3-3.16c-2.35,0-3.4,2.05-3.4,4v7.42H98.25V20.87a2.86,2.86,0,0,0-3-3.16c-2.37,0-3.4,2.05-3.4,4v7.42H88V14.77Z"/><path class="cls-3" d="M129.92,21.09a8.08,8.08,0,0,1-.23,1.78h-10.5c.23,2.26,2.2,3.44,4.4,3.44a5.41,5.41,0,0,0,3.93-1.61l2.11,2.43a8.54,8.54,0,0,1-6.22,2.37c-4.92,0-8.18-3.3-8.18-7.51a7.45,7.45,0,0,1,7.66-7.56C127.14,14.43,129.92,17.28,129.92,21.09Zm-10.73-.7h7v0a3.11,3.11,0,0,0-3.34-2.85A3.49,3.49,0,0,0,119.19,20.39Z"/><path class="cls-3" d="M136.75,14.77v2a5,5,0,0,1,4.61-2.32c3.52,0,5.81,2.2,5.81,6v8.72h-3.82V20.87a2.86,2.86,0,0,0-3-3.16c-2.37,0-3.43,2.05-3.43,4v7.42h-3.81V14.77Z"/><path class="cls-3" d="M151.68,14.77V10.85h3.7v3.92h3.54v2.94h-3.54v6.4a1.85,1.85,0,0,0,2.08,2.09,3.52,3.52,0,0,0,1.85-.48v3.21a6.28,6.28,0,0,1-2.85.57c-3.05,0-4.9-1.72-4.9-4.85V17.71h-2.11V14.77Z"/><path class="cls-3" d="M176.46,22c0,4.23-3.31,7.53-7.92,7.53a7.54,7.54,0,1,1,0-15.07C173.15,14.43,176.46,17.73,176.46,22Zm-12,0a4,4,0,1,0,8.09,0,4,4,0,1,0-8.09,0Z"/><path class="cls-3" d="M183.41,17.28a4.41,4.41,0,0,1,4.25-2.85,2.57,2.57,0,0,1,.91.12v3.52a2.28,2.28,0,0,0-.82-.11c-2.67,0-4.28,1.92-4.28,4.88v6.32h-3.81V14.77h3.75Z"/><path class="cls-3" d="M204.2,21.09a8.08,8.08,0,0,1-.23,1.78h-10.5c.23,2.26,2.2,3.44,4.4,3.44a5.41,5.41,0,0,0,3.93-1.61l2.11,2.43a8.54,8.54,0,0,1-6.22,2.37c-4.93,0-8.18-3.3-8.18-7.51a7.45,7.45,0,0,1,7.65-7.56C201.42,14.43,204.2,17.28,204.2,21.09Zm-10.73-.7h7v0a3.12,3.12,0,0,0-3.34-2.85A3.49,3.49,0,0,0,193.47,20.39Z"/><path class="cls-3" d="M218.1,27.1a5.92,5.92,0,0,1-4.84,2.4c-3.87,0-7-3.1-7-7.53s3-7.54,7.07-7.54a5.58,5.58,0,0,1,4.55,2.18V9.13h3.81v20H218.1ZM218,21.94a3.94,3.94,0,0,0-4-4.23,4,4,0,0,0-4,4.23,4.06,4.06,0,0,0,4,4.29A4,4,0,0,0,218,21.94Z"/><path class="cls-3" d="M121.66,57.25l2.58-1.83a4.21,4.21,0,0,0,3.58,2.12c1.41,0,2.26-.48,2.26-1.24s-.79-1.27-3.23-2.06c-3-1-4.69-2.15-4.69-4.52s2.52-4.29,5.75-4.29a6.08,6.08,0,0,1,5.45,2.85l-2.55,1.78a3.31,3.31,0,0,0-3-1.69c-1.2,0-2.11.53-2.11,1.32s.79,1.16,3.11,2c2.84,1,4.81,2,4.81,4.57,0,2.43-2.38,4.29-5.84,4.29A6.86,6.86,0,0,1,121.66,57.25Z"/><path class="cls-3" d="M140.43,47.8a5.91,5.91,0,0,1,4.81-2.37c3.87,0,7,3.11,7,7.54s-3,7.53-7.07,7.53a5.59,5.59,0,0,1-4.54-2.06V65.8h-3.82v-20h3.58Zm.09,5.19a4,4,0,0,0,4,4.24,4.27,4.27,0,0,0,0-8.52A4,4,0,0,0,140.52,53Z"/><path class="cls-3" d="M159.26,48.28a4.42,4.42,0,0,1,4.25-2.85,2.6,2.6,0,0,1,.91.12v3.52a2.32,2.32,0,0,0-.82-.11c-2.67,0-4.28,1.92-4.28,4.88v6.32H155.5V45.77h3.76Z"/><path class="cls-3" d="M171.1,41.6a2.1,2.1,0,0,1-2.19,2.08,2.07,2.07,0,0,1-2.2-2.08,2.05,2.05,0,0,1,2.2-2.06A2.08,2.08,0,0,1,171.1,41.6ZM167,45.77h3.81V60.16H167Z"/><path class="cls-3" d="M178.85,45.77v2a5,5,0,0,1,4.6-2.32c3.52,0,5.81,2.2,5.81,6v8.72h-3.82V51.87a2.86,2.86,0,0,0-3-3.16c-2.37,0-3.43,2-3.43,4v7.42h-3.81V45.77Z"/><path class="cls-3" d="M193.77,45.77V41.85h3.7v3.92H201v2.94h-3.55v6.4a1.85,1.85,0,0,0,2.08,2.09,3.52,3.52,0,0,0,1.85-.48v3.21a6.28,6.28,0,0,1-2.85.57c-3.05,0-4.89-1.72-4.89-4.85V48.71h-2.12V45.77Z"/><path class="cls-3" d="M202.69,57.25l2.58-1.83a4.19,4.19,0,0,0,3.58,2.12c1.4,0,2.25-.48,2.25-1.24s-.79-1.27-3.22-2.06c-3-1-4.7-2.15-4.7-4.52s2.53-4.29,5.75-4.29a6.09,6.09,0,0,1,5.46,2.85l-2.55,1.78a3.34,3.34,0,0,0-3-1.69c-1.2,0-2.11.53-2.11,1.32s.79,1.16,3.11,2c2.85,1,4.81,2,4.81,4.57,0,2.43-2.37,4.29-5.83,4.29A6.85,6.85,0,0,1,202.69,57.25Z"/><line class="cls-7" x1="117.87" y1="59.64" x2="88.02" y2="59.64"/></g></g></svg>