<svg xmlns="http://www.w3.org/2000/svg" viewBox="0 0 168.17 168.04"><defs><style>.cls-1{font-size:20px;fill:#f2a2e5;font-family:Rotunda-Regular,Rotunda}.cls-2{fill:none;stroke:#f2a2e5;stroke-linecap:round;stroke-miterlimit:10;stroke-width:3px}</style></defs><g id="Layer_2" data-name="Layer 2"><g id="Layer_1-2" data-name="Layer 1"><text class="cls-1" transform="translate(53.65 6.98) rotate(152.38) scale(0.83 1)">e</text><text class="cls-1" transform="translate(43.65 12.04) rotate(142.2) scale(0.83 1)">m</text><text class="cls-1" transform="translate(29.88 23.24) rotate(131.73) scale(0.83 1)">p</text><text class="cls-1" transform="matrix(-0.46, 0.69, -0.83, -0.55, 22.12, 32.08)">o</text><text class="cls-1" transform="translate(15.68 41.77) rotate(114.31) scale(0.83 1)">w</text><text class="cls-1" transform="translate(9.89 55.2) rotate(105.21) scale(0.83 1)">e</text><text class="cls-1" transform="translate(7.25 65.43) rotate(98.89) scale(0.83 1)">r</text><text class="cls-1" transform="translate(6.24 72.31) rotate(94.67) scale(0.83 1)">i</text><text class="cls-1" transform="translate(5.71 77.5) rotate(89.02) scale(0.83 1)">n</text><text class="cls-1" transform="translate(6.02 88.83) rotate(81.52) scale(0.83 1)">g</text><text class="cls-1" transform="translate(8.67 103.31) rotate(70.64) scale(0.83 1)">o</text><text class="cls-1" transform="matrix(0.37, 0.75, -0.89, 0.45, 12.55, 113.91)">s</text><text class="cls-1" transform="matrix(0.45, 0.7, -0.84, 0.54, 16.47, 121.66)">s</text><text class="cls-1" transform="matrix(0.54, 0.63, -0.76, 0.65, 23.92, 132.4)">l</text><text class="cls-1" transform="translate(27.4 136.56) rotate(43.72) scale(0.83 1)">e</text><text class="cls-1" transform="translate(35.22 143.9) rotate(36.45) scale(0.83 1)">a</text><text class="cls-1" transform="translate(43.32 149.86) rotate(28.8) scale(0.83 1)">d</text><text class="cls-1" transform="translate(53.67 155.42) rotate(20.79) scale(0.83 1)">e</text><text class="cls-1" transform="translate(63.61 159.04) rotate(14.45) scale(0.83 1)">r</text><text class="cls-1" transform="translate(70.38 160.78) rotate(8.98) scale(0.83 1)">s</text><text class="cls-1" transform="translate(78.73 161.99) rotate(4.44) scale(0.83 1)">.</text><path d="M64.89,9.11A76.25,76.25,0,0,1,85.08,5.86a75.45,75.45,0,0,1,51.81,18.75" class="cls-2"/></g></g></svg>