<svg xmlns="http://www.w3.org/2000/svg" viewBox="0 0 168.17 168.15"><defs><style>.cls-1{font-size:20px;fill:#5936d9;font-family:Rotunda-Regular,Rotunda}.cls-2{fill:none;stroke:#5936d9;stroke-linecap:round;stroke-miterlimit:10;stroke-width:3px}</style></defs><g id="Layer_2" data-name="Layer 2"><g id="Layer_1-2" data-name="Layer 1"><text class="cls-1" transform="matrix(-0.72, 0.42, -0.5, -0.86, 53.18, 6.9)">m</text><text class="cls-1" transform="translate(38.13 16.18) rotate(139.91) scale(0.83 1)">a</text><text class="cls-1" transform="matrix(-0.57, 0.61, -0.73, -0.68, 30.56, 22.64)">k</text><text class="cls-1" transform="matrix(-0.51, 0.66, -0.79, -0.61, 24.09, 29.79)">i</text><text class="cls-1" transform="translate(20.78 33.9) rotate(122) scale(0.83 1)">n</text><text class="cls-1" transform="translate(14.86 43.6) rotate(114.39) scale(0.83 1)">g</text><text class="cls-1" transform="translate(9.22 57.23) rotate(103.49) scale(0.83 1)">o</text><text class="cls-1" transform="translate(6.73 68.2) rotate(96.39) scale(0.83 1)">s</text><text class="cls-1" transform="matrix(-0.01, 0.83, -1, -0.02, 5.85, 76.95)">s</text><text class="cls-1" transform="matrix(0.18, 0.81, -0.98, 0.21, 5.92, 90.58)">m</text><text class="cls-1" transform="translate(10.1 107.87) rotate(67.25) scale(0.83 1)">o</text><text class="cls-1" transform="translate(14.58 118.12) rotate(60.71) scale(0.83 1)">r</text><text class="cls-1" transform="translate(17.92 124.17) rotate(54.67) scale(0.83 1)">e</text><text class="cls-1" transform="translate(27.21 136.32) rotate(44.19) scale(0.83 1)">a</text><text class="cls-1" transform="translate(34.4 143.23) rotate(37.13) scale(0.83 1)">c</text><text class="cls-1" transform="translate(42.46 149.25) rotate(30.05) scale(0.83 1)">c</text><text class="cls-1" transform="translate(51.2 154.26) rotate(22.73) scale(0.83 1)">e</text><text class="cls-1" transform="matrix(0.8, 0.23, -0.27, 0.96, 61.08, 158.27)">s</text><text class="cls-1" transform="translate(69.47 160.59) rotate(9.63) scale(0.83 1)">s</text><text class="cls-1" transform="translate(77.84 161.91) rotate(4.85) scale(0.83 1)">i</text><text class="cls-1" transform="translate(83.06 162.46) rotate(-0.93) scale(0.83 1)">b</text><text class="cls-1" transform="translate(94.45 162.08) rotate(-6.87) scale(0.83 1)">l</text><text class="cls-1" transform="translate(99.86 161.51) rotate(-12.44) scale(0.83 1)">e</text><text class="cls-1" transform="translate(113.86 157.85) rotate(-20.66) scale(0.83 1)">.</text><path d="M64.89,8.73a75.86,75.86,0,0,1,72,15.5" class="cls-2"/></g></g></svg>