<svg xmlns="http://www.w3.org/2000/svg" viewBox="0 0 179.44 187.99"><defs><style>.cls-1{fill:none;stroke:#1d1d1b;stroke-linecap:round;stroke-miterlimit:10;stroke-width:3px;}.cls-2{font-size:20px;fill:#1d1d1b;font-family:Rotunda-Regular, Rotunda;}</style></defs><g id="Layer_2" data-name="Layer 2"><g id="Layer_1-2" data-name="Layer 1"><path class="cls-1" d="M77.29,2a75.91,75.91,0,0,1,68.06,28.13"/><text class="cls-2" transform="matrix(0.44, 0.71, -0.85, 0.53, 146.1, 40.32)">m</text><text class="cls-2" transform="translate(154.14 53.8) rotate(66.85) scale(0.83 1)">a</text><text class="cls-2" transform="matrix(0.24, 0.8, -0.96, 0.29, 157.5, 61.63)">k</text><text class="cls-2" transform="translate(159.95 69.85) rotate(77.4) scale(0.83 1)">i</text><text class="cls-2" transform="translate(160.98 73.83) rotate(82.37) scale(0.83 1)">n</text><text class="cls-2" transform="matrix(0.02, 0.83, -1, 0.02, 162.27, 83.57)">g</text><text class="cls-2" transform="translate(162.37 92.33) rotate(93.2) scale(0.83 1)"> </text><text class="cls-2" transform="matrix(-0.12, 0.82, -0.99, -0.14, 162.3, 96.14)">o</text><text class="cls-2" transform="translate(160.88 105.87) rotate(104.12) scale(0.83 1)">s</text><text class="cls-2" transform="translate(159.08 113.09) rotate(109.4) scale(0.83 1)">s</text><text class="cls-2" transform="matrix(-0.33, 0.76, -0.92, -0.4, 156.53, 120.18)"> </text><text class="cls-2" transform="translate(155.4 123.74) rotate(120.33) scale(0.83 1)">m</text><text class="cls-2" transform="translate(147.34 137.14) rotate(129.23) scale(0.83 1)">o</text><text class="cls-2" transform="translate(141.04 144.73) rotate(134.79) scale(0.83 1)">r</text><text class="cls-2" transform="matrix(-0.64, 0.54, -0.64, -0.77, 137.08, 148.86)">e</text><text class="cls-2" transform="translate(129.86 154.8) rotate(144.58) scale(0.83 1)"> </text><text class="cls-2" transform="matrix(-0.71, 0.43, -0.52, -0.86, 126.81, 157.09)">a</text><text class="cls-2" transform="translate(119.5 161.52) rotate(155.06) scale(0.83 1)">c</text><text class="cls-2" transform="translate(111.7 165.18) rotate(161.17) scale(0.83 1)">c</text><text class="cls-2" transform="translate(103.54 168) rotate(167.49) scale(0.83 1)">e</text><text class="cls-2" transform="translate(94.5 169.97) rotate(173.39) scale(0.83 1)">s</text><text class="cls-2" transform="translate(87.1 170.84) rotate(178.6) scale(0.83 1)">s</text><text class="cls-2" transform="translate(79.56 170.98) rotate(-177.35) scale(0.83 1)">i</text><text class="cls-2" transform="translate(75.46 170.93) rotate(-172.33) scale(0.83 1)">b</text><text class="cls-2" transform="translate(65.38 169.46) rotate(-167.16) scale(0.83 1)">l</text><text class="cls-2" transform="translate(61.15 168.62) rotate(-162.37) scale(0.83 1)">e</text><text class="cls-2" transform="translate(52.28 165.69) rotate(-157.69) scale(0.83 1)"> </text><text class="cls-2" transform="translate(49.04 164.37) rotate(-155.32) scale(0.83 1)">.</text></g></g></svg>